<svg xmlns="http://www.w3.org/2000/svg" xmlns:xlink="http://www.w3.org/1999/xlink" viewBox="0 0 2432.39 2942.54"><defs><style>.cls-1{fill:none;}.cls-2{fill:url(#linear-gradient);}.cls-3{fill:#91b3fa;}.cls-4{fill:#7d97f4;}.cls-5{fill:#bdd0fb;}.cls-6{clip-path:url(#clip-path);}.cls-7{fill:url(#linear-gradient-2);}.cls-8{fill:url(#linear-gradient-3);}.cls-9{fill:url(#linear-gradient-4);}.cls-10{fill:url(#linear-gradient-5);}.cls-11{fill:url(#linear-gradient-6);}.cls-12{fill:url(#linear-gradient-7);}.cls-13{fill:url(#linear-gradient-8);}.cls-14{fill:url(#linear-gradient-9);}.cls-15{fill:url(#linear-gradient-10);}.cls-16{fill:url(#linear-gradient-11);}.cls-17{fill:url(#linear-gradient-12);}.cls-18{fill:url(#linear-gradient-13);}.cls-19{fill:url(#linear-gradient-14);}.cls-20{fill:url(#linear-gradient-15);}.cls-21{fill:#f4cd4e;}.cls-22{fill:#f7b05c;}.cls-23{fill:url(#linear-gradient-16);}.cls-24{fill:url(#linear-gradient-17);}.cls-25{fill:#4da059;}.cls-26,.cls-36,.cls-63,.cls-76,.cls-77,.cls-81{fill:#fff;}.cls-26{opacity:0.61;}.cls-27{fill:url(#linear-gradient-18);}.cls-28{fill:url(#linear-gradient-19);}.cls-29{fill:url(#linear-gradient-20);}.cls-30{fill:url(#linear-gradient-21);}.cls-31{fill:url(#linear-gradient-22);}.cls-32{fill:url(#linear-gradient-23);}.cls-33{fill:url(#linear-gradient-24);}.cls-34{fill:url(#linear-gradient-25);}.cls-35{fill:url(#linear-gradient-26);}.cls-36{opacity:0.37;}.cls-37{fill:url(#linear-gradient-27);}.cls-38{fill:url(#linear-gradient-28);}.cls-39{fill:url(#linear-gradient-29);}.cls-40{fill:url(#linear-gradient-30);}.cls-41{fill:url(#linear-gradient-31);}.cls-42{fill:url(#linear-gradient-32);}.cls-43{fill:url(#linear-gradient-33);}.cls-44{fill:url(#linear-gradient-34);}.cls-45{fill:url(#linear-gradient-35);}.cls-46{fill:url(#linear-gradient-36);}.cls-47{fill:url(#linear-gradient-37);}.cls-48{fill:url(#linear-gradient-38);}.cls-49{fill:url(#linear-gradient-39);}.cls-50{fill:url(#linear-gradient-40);}.cls-51{fill:url(#linear-gradient-41);}.cls-52{fill:url(#linear-gradient-42);}.cls-53{fill:url(#linear-gradient-43);}.cls-54{fill:url(#linear-gradient-44);}.cls-55{fill:url(#linear-gradient-45);}.cls-56{fill:url(#linear-gradient-46);}.cls-57{fill:url(#linear-gradient-47);}.cls-58{fill:url(#linear-gradient-48);}.cls-59{fill:url(#linear-gradient-49);}.cls-60{fill:url(#linear-gradient-50);}.cls-61{fill:url(#linear-gradient-51);}.cls-62{opacity:0.9;}.cls-64{opacity:0.8;}.cls-65{fill:url(#linear-gradient-52);}.cls-66{fill:url(#linear-gradient-53);}.cls-67{fill:url(#linear-gradient-54);}.cls-68{fill:url(#linear-gradient-55);}.cls-69{fill:url(#linear-gradient-56);}.cls-70{fill:url(#linear-gradient-57);}.cls-71{fill:url(#linear-gradient-58);}.cls-72{fill:url(#linear-gradient-59);}.cls-73{fill:url(#linear-gradient-60);}.cls-74{fill:url(#linear-gradient-61);}.cls-75{fill:url(#linear-gradient-62);}.cls-76{opacity:0.72;}.cls-77{opacity:0.59;}.cls-78{fill:url(#linear-gradient-63);}.cls-79{fill:url(#linear-gradient-64);}.cls-80{fill:url(#linear-gradient-65);}.cls-81{opacity:0.66;}.cls-82{fill:url(#linear-gradient-66);}.cls-83{fill:url(#linear-gradient-67);}.cls-84{fill:url(#linear-gradient-68);}.cls-85{fill:url(#linear-gradient-69);}.cls-86{fill:url(#linear-gradient-70);}.cls-87{fill:url(#linear-gradient-71);}.cls-88{fill:url(#linear-gradient-72);}.cls-89{fill:url(#linear-gradient-73);}.cls-90{fill:url(#linear-gradient-74);}.cls-91{fill:url(#linear-gradient-75);}</style><linearGradient id="linear-gradient" x1="-1645" y1="751.65" x2="787.39" y2="751.65" gradientTransform="matrix(-1, 0, 0, 1, 787.39, 0)" gradientUnits="userSpaceOnUse"><stop offset="0" stop-color="#dae3fe"/><stop offset="1" stop-color="#e9effd"/></linearGradient><clipPath id="clip-path" transform="translate(0 -18.44)"><rect class="cls-1" x="291.38" width="1847.76" height="1485.15"/></clipPath><linearGradient id="linear-gradient-2" x1="4780.5" y1="3804.3" x2="3948.5" y2="4457.59" gradientTransform="translate(-3014.18 -1035.27) rotate(0.14)" gradientUnits="userSpaceOnUse"><stop offset="0" stop-color="#09005d"/><stop offset="1" stop-color="#1a0f91"/></linearGradient><linearGradient id="linear-gradient-3" x1="-6357.57" y1="3966.64" x2="-5621.35" y2="3723.88" gradientTransform="matrix(-1, 0, 0, 1, -4668.16, -1039.19)" gradientUnits="userSpaceOnUse"><stop offset="0" stop-color="#8d55d1"/><stop offset="1" stop-color="#1c2873"/></linearGradient><linearGradient id="linear-gradient-4" x1="1395.98" y1="2754.99" x2="1573.72" y2="2754.99" gradientUnits="userSpaceOnUse"><stop offset="0" stop-color="#ff928e"/><stop offset="1" stop-color="#feb3b1"/></linearGradient><linearGradient id="linear-gradient-5" x1="2935.63" y1="3808.91" x2="2103.62" y2="4462.2" gradientTransform="matrix(-1, 0, 0, 1, 3641.84, -1035.27)" xlink:href="#linear-gradient-2"/><linearGradient id="linear-gradient-6" x1="-4512.69" y1="3971.25" x2="-3776.48" y2="3728.5" gradientTransform="translate(5295.81 -1039.19) rotate(-0.14)" xlink:href="#linear-gradient-3"/><linearGradient id="linear-gradient-7" x1="-448.91" y1="2754.99" x2="-271.17" y2="2754.99" gradientTransform="matrix(-1, 0, 0, 1, 627.66, 0)" xlink:href="#linear-gradient-4"/><linearGradient id="linear-gradient-8" x1="629.79" y1="2166.81" x2="1842.75" y2="2166.81" gradientTransform="matrix(1, 0, 0, 1, 0, 0)" xlink:href="#linear-gradient-2"/><linearGradient id="linear-gradient-9" x1="1371.14" y1="41.78" x2="1133.72" y2="2568.67" gradientUnits="userSpaceOnUse"><stop offset="0" stop-color="#4042e2"/><stop offset="1" stop-color="#4f52ff"/></linearGradient><linearGradient id="linear-gradient-10" x1="1226.75" y1="440.13" x2="1148.58" y2="-71.25" xlink:href="#linear-gradient-4"/><linearGradient id="linear-gradient-11" x1="1037.93" y1="-248.49" x2="1041.19" y2="266.16" xlink:href="#linear-gradient-4"/><linearGradient id="linear-gradient-12" x1="-741.57" y1="-262.4" x2="-738.31" y2="252.25" gradientTransform="matrix(-1, 0, 0, 1, 685.49, 0)" xlink:href="#linear-gradient-4"/><linearGradient id="linear-gradient-13" x1="1229.56" y1="-249.7" x2="1232.82" y2="264.94" xlink:href="#linear-gradient-4"/><linearGradient id="linear-gradient-14" x1="1547.48" y1="-441.18" x2="1267.44" y2="249.15" gradientTransform="matrix(1, 0, 0, 1, 0, 0)" xlink:href="#linear-gradient-2"/><linearGradient id="linear-gradient-15" x1="1157.34" y1="124.36" x2="1205.11" y2="775.74" gradientTransform="matrix(1, 0, 0, 1, 0, 0)" xlink:href="#linear-gradient-2"/><linearGradient id="linear-gradient-16" x1="319.37" y1="980.3" x2="319.37" y2="1017.1" gradientTransform="matrix(0.96, -0.29, 0.29, 0.96, 535.78, 20.48)" gradientUnits="userSpaceOnUse"><stop offset="0" stop-color="#a22b25"/><stop offset="1" stop-color="#c0423c"/></linearGradient><linearGradient id="linear-gradient-17" x1="306.8" y1="1023.18" x2="337.56" y2="877.06" xlink:href="#linear-gradient-16"/><linearGradient id="linear-gradient-18" x1="652.55" y1="1207.08" x2="730.71" y2="633.87" xlink:href="#linear-gradient-4"/><linearGradient id="linear-gradient-19" x1="1806.69" y1="1190.03" x2="1741.55" y2="456.14" xlink:href="#linear-gradient-4"/><linearGradient id="linear-gradient-20" x1="777.2" y1="1407.78" x2="729.43" y2="995.24" xlink:href="#linear-gradient-4"/><linearGradient id="linear-gradient-21" x1="1558.81" y1="1009.22" x2="1760.76" y2="1390.32" xlink:href="#linear-gradient-4"/><linearGradient id="linear-gradient-22" x1="1061.2" y1="773.77" x2="852.74" y2="1047.38" xlink:href="#linear-gradient-4"/><linearGradient id="linear-gradient-23" x1="1346.22" y1="859.32" x2="1419.28" y2="859.32" gradientUnits="userSpaceOnUse"><stop offset="0" stop-color="#fe7062"/><stop offset="1" stop-color="#ff928e"/></linearGradient><linearGradient id="linear-gradient-24" x1="1575.19" y1="-837.67" x2="1425.4" y2="510.43" gradientTransform="matrix(1, 0, 0, 1, 0, 0)" xlink:href="#linear-gradient-2"/><linearGradient id="linear-gradient-25" x1="1211.17" y1="1018.32" x2="1486.09" y2="1018.32" xlink:href="#linear-gradient-23"/><linearGradient id="linear-gradient-26" x1="1240.82" y1="1408.63" x2="1486.09" y2="1408.63" xlink:href="#linear-gradient-23"/><linearGradient id="linear-gradient-27" x1="1635.46" y1="1027.39" x2="1482.37" y2="1193.51" xlink:href="#linear-gradient-4"/><linearGradient id="linear-gradient-28" x1="-3280.09" y1="1104.02" x2="-3299.63" y2="1299.44" gradientTransform="matrix(-1, 0, 0, 1, -1195.59, 0)" xlink:href="#linear-gradient-2"/><linearGradient id="linear-gradient-29" x1="-3357.17" y1="1491.04" x2="-3285.25" y2="1491.04" gradientTransform="matrix(-1, 0, 0, 1, -1195.59, 0)" xlink:href="#linear-gradient-9"/><linearGradient id="linear-gradient-30" x1="-3350.33" y1="1470.79" x2="-3329.49" y2="1470.79" gradientTransform="matrix(-1, 0, 0, 1, -1195.59, 0)" xlink:href="#linear-gradient-4"/><linearGradient id="linear-gradient-31" x1="376.99" y1="1087.13" x2="357.45" y2="1282.55" gradientTransform="matrix(-1, 0, 0, 1, 2630.41, 0)" xlink:href="#linear-gradient-2"/><linearGradient id="linear-gradient-32" x1="321.51" y1="1482.11" x2="363.14" y2="1482.11" gradientTransform="matrix(-1, 0, 0, 1, 2630.41, 0)" xlink:href="#linear-gradient-9"/><linearGradient id="linear-gradient-33" x1="-3482.85" y1="1453.41" x2="-3457.94" y2="1453.41" gradientTransform="matrix(-1, 0, 0, 1, -1195.59, 0)" xlink:href="#linear-gradient-4"/><linearGradient id="linear-gradient-34" x1="-3290.23" y1="1223.88" x2="-3565.99" y2="1625.77" gradientTransform="matrix(-1, 0, 0, 1, -1195.59, 0)" xlink:href="#linear-gradient-2"/><linearGradient id="linear-gradient-35" x1="-3169.56" y1="933.37" x2="-3740.67" y2="1430.08" gradientTransform="matrix(-1, 0, 0, 1, -1195.59, 0)" xlink:href="#linear-gradient-9"/><linearGradient id="linear-gradient-36" x1="-3398.9" y1="1361.15" x2="-3386.96" y2="1337.28" gradientTransform="matrix(-1, 0, 0, 1, -1195.59, 0)" gradientUnits="userSpaceOnUse"><stop offset="0" stop-color="#53d8ff"/><stop offset="1" stop-color="#3840f7"/></linearGradient><linearGradient id="linear-gradient-37" x1="-2909.77" y1="263.08" x2="-2972.74" y2="372.73" gradientTransform="matrix(-1, 0, 0, 1, -1195.59, 0)" xlink:href="#linear-gradient-4"/><linearGradient id="linear-gradient-38" x1="-3217.17" y1="880.73" x2="-3785.7" y2="1375.21" gradientTransform="matrix(-1, 0, 0, 1, -1195.59, 0)" xlink:href="#linear-gradient-9"/><linearGradient id="linear-gradient-39" x1="698.2" y1="983.49" x2="129.67" y2="1477.96" gradientTransform="matrix(-1, 0, 0, 1, 2630.41, 0)" xlink:href="#linear-gradient-9"/><linearGradient id="linear-gradient-40" x1="623.53" y1="1097.71" x2="693.37" y2="1097.71" gradientTransform="matrix(-1, 0, 0, 1, 2630.41, 0)" gradientUnits="userSpaceOnUse"><stop offset="0" stop-color="#2c50ff"/><stop offset="1" stop-color="#1a1b80"/></linearGradient><linearGradient id="linear-gradient-41" x1="2056.67" y1="892.89" x2="2093.58" y2="1000.37" xlink:href="#linear-gradient-4"/><linearGradient id="linear-gradient-42" x1="2006.51" y1="866.85" x2="2090.11" y2="927.65" xlink:href="#linear-gradient-4"/><linearGradient id="linear-gradient-43" x1="1993.17" y1="825.52" x2="2103.9" y2="963.39" gradientTransform="matrix(1, 0, 0, 1, 0, 0)" xlink:href="#linear-gradient-2"/><linearGradient id="linear-gradient-44" x1="-4607.96" y1="343.27" x2="-4556.46" y2="290.44" gradientTransform="matrix(-0.64, -0.76, -0.76, 0.64, -635.4, -2745.94)" xlink:href="#linear-gradient-4"/><linearGradient id="linear-gradient-45" x1="-3140.05" y1="1089.51" x2="-3115.04" y2="1089.51" gradientTransform="matrix(-1, 0, 0, 1, -1195.59, 0)" xlink:href="#linear-gradient-4"/><linearGradient id="linear-gradient-46" x1="-41.4" y1="954.02" x2="-46.83" y2="1287.31" gradientTransform="matrix(0.6, -0.48, 0.63, 0.78, 971.2, -9.29)" gradientUnits="userSpaceOnUse"><stop offset="0" stop-color="#e1473d"/><stop offset="1" stop-color="#e9605a"/></linearGradient><linearGradient id="linear-gradient-47" x1="-38.86" y1="1392.57" x2="-18.23" y2="1137.44" xlink:href="#linear-gradient-46"/><linearGradient id="linear-gradient-48" x1="1972.6" y1="1045.18" x2="1967.18" y2="1378.48" gradientTransform="matrix(1, 0, 0, 1, 0, 0)" xlink:href="#linear-gradient-46"/><linearGradient id="linear-gradient-49" x1="1972.74" y1="1280.65" x2="1993.36" y2="1025.53" gradientTransform="matrix(1, 0, 0, 1, 0, 0)" xlink:href="#linear-gradient-46"/><linearGradient id="linear-gradient-50" x1="1734.93" y1="1041.31" x2="1729.5" y2="1374.6" gradientTransform="matrix(1, 0, 0, 1, 0, 0)" xlink:href="#linear-gradient-46"/><linearGradient id="linear-gradient-51" x1="1740.04" y1="1261.84" x2="1760.67" y2="1006.71" gradientTransform="matrix(1, 0, 0, 1, 0, 0)" xlink:href="#linear-gradient-46"/><linearGradient id="linear-gradient-52" x1="2003.09" y1="1260.65" x2="2054.05" y2="1260.65" gradientTransform="matrix(1, 0, 0, 1, 0, 0)" xlink:href="#linear-gradient-46"/><linearGradient id="linear-gradient-53" x1="1795.27" y1="1340.76" x2="1861.54" y2="1340.76" gradientTransform="matrix(1, 0, 0, 1, 0, 0)" xlink:href="#linear-gradient-46"/><linearGradient id="linear-gradient-54" x1="1661.92" y1="1386" x2="1708.94" y2="1386" gradientTransform="matrix(1, 0, 0, 1, 0, 0)" xlink:href="#linear-gradient-46"/><linearGradient id="linear-gradient-55" x1="1839.56" y1="982.05" x2="1811.33" y2="1128.61" xlink:href="#linear-gradient-23"/><linearGradient id="linear-gradient-56" x1="1961.04" y1="1005.44" x2="1932.81" y2="1152" xlink:href="#linear-gradient-23"/><linearGradient id="linear-gradient-57" x1="1930.68" y1="999.6" x2="1902.45" y2="1146.16" xlink:href="#linear-gradient-23"/><linearGradient id="linear-gradient-58" x1="2148.1" y1="1041.47" x2="2119.87" y2="1188.03" xlink:href="#linear-gradient-23"/><linearGradient id="linear-gradient-59" x1="2032.86" y1="1019.28" x2="2004.64" y2="1165.84" xlink:href="#linear-gradient-23"/><linearGradient id="linear-gradient-60" x1="1893.75" y1="992.48" x2="1865.53" y2="1139.05" xlink:href="#linear-gradient-23"/><linearGradient id="linear-gradient-61" x1="1707.97" y1="956.7" x2="1679.74" y2="1103.27" xlink:href="#linear-gradient-23"/><linearGradient id="linear-gradient-62" x1="2196.84" y1="754.31" x2="2121.93" y2="1058.81" gradientTransform="matrix(1, 0, 0, 1, 0, 0)" xlink:href="#linear-gradient-46"/><linearGradient id="linear-gradient-63" x1="-4148.08" y1="-1021.69" x2="-4211.05" y2="-912.04" gradientTransform="matrix(-0.79, -0.61, -0.61, 0.79, -1609.52, -1408.88)" xlink:href="#linear-gradient-4"/><linearGradient id="linear-gradient-64" x1="424.82" y1="726.93" x2="348.82" y2="860.46" xlink:href="#linear-gradient-4"/><linearGradient id="linear-gradient-65" x1="447.24" y1="595.78" x2="418.14" y2="819.85" gradientTransform="matrix(1, 0, 0, 1, 0, 0)" xlink:href="#linear-gradient-46"/><linearGradient id="linear-gradient-66" x1="2430.57" y1="1395.7" x2="2535.59" y2="1395.7" gradientTransform="matrix(-1, 0, 0, 1, 2729.08, 0)" xlink:href="#linear-gradient-4"/><linearGradient id="linear-gradient-67" x1="2574.92" y1="1160.84" x2="2522.91" y2="1498.9" gradientTransform="matrix(-1, 0, 0, 1, 2729.08, 0)" xlink:href="#linear-gradient-9"/><linearGradient id="linear-gradient-68" x1="2464.87" y1="1143.91" x2="2412.86" y2="1481.97" gradientTransform="matrix(-1, 0, 0, 1, 2729.08, 0)" xlink:href="#linear-gradient-9"/><linearGradient id="linear-gradient-69" x1="2366.84" y1="1403.51" x2="2427.65" y2="1403.51" gradientTransform="matrix(-1, 0, 0, 1, 2729.08, 0)" xlink:href="#linear-gradient-4"/><linearGradient id="linear-gradient-70" x1="385.91" y1="1361.19" x2="414.13" y2="1109.32" xlink:href="#linear-gradient-4"/><linearGradient id="linear-gradient-71" x1="341.39" y1="1033.38" x2="347.21" y2="1171.15" xlink:href="#linear-gradient-23"/><linearGradient id="linear-gradient-72" x1="2313.15" y1="1128.77" x2="2508.18" y2="1348.73" gradientTransform="matrix(-1, 0, 0, 1, 2729.08, 0)" xlink:href="#linear-gradient-2"/><linearGradient id="linear-gradient-73" x1="2382.91" y1="1346.91" x2="2372.05" y2="1514.1" gradientTransform="matrix(-1, 0, 0, 1, 2729.08, 0)" xlink:href="#linear-gradient-4"/><linearGradient id="linear-gradient-74" x1="2388.33" y1="1347.27" x2="2377.48" y2="1514.45" gradientTransform="matrix(-1, 0, 0, 1, 2729.08, 0)" xlink:href="#linear-gradient-4"/><linearGradient id="linear-gradient-75" x1="548.62" y1="606.02" x2="396.63" y2="857.88" gradientTransform="matrix(1, 0, 0, 1, 0, 0)" xlink:href="#linear-gradient-2"/></defs><g id="Layer_2" data-name="Layer 2"><g id="Illustration"><path class="cls-2" d="M68.82,828.25c42.18-42.32,92.05-83.59,105.05-141C196.38,587.79,100.15,503,68.65,405.92,46.87,338.77,58.1,262.33,98.37,203.75S207.1,105.64,279.45,99.21c124.48-11.07,246.31,70.19,368.93,46.66C746.56,127,824.15,43.9,923.82,35c117.28-10.48,214.59,83.31,326.59,118.62,134,42.24,279.21-1.9,410.91-50.34S1931.6.8,2070.43,24c154.54,25.8,284.11,156.25,304.78,306.83,20.48,149.24-151.31,269-5.07,448.23,45.7,56,76.09,134,55.89,202.61-19.63,66.7-103.16,108.88-103.77,178.24-.48,54.75,52.81,98.32,57.11,152.91,3.68,46.86-31.11,90.19-73.87,112.39s-92.36,27.64-140.6,32.68c0,0-473.2,31.23-717.09,26.51L294,1462c-39.53-.76-80-1.7-116.84-15.63s-69.87-43.73-75.48-81.64c-9.54-64.52,60.07-120.51,53.64-185.39-8.22-82.85-128.64-114.81-151.56-195C-12.45,927.67,26.65,870.57,68.82,828.25Z" transform="translate(0 -18.44)"/><path class="cls-3" d="M790.76,1033.36C744.46,971,677.28,933.63,607.08,924.18c-62.76-8.45-114.88-40.2-144.27-89.43q-4.63-7.75-10.14-15.2c-55.7-75-158-93.36-228.55-41s-82.56,155.62-26.87,230.63A178.54,178.54,0,0,0,236.59,1048c46.65,33.43,75.18,84.69,77.45,144.59a275.83,275.83,0,0,0,54.62,154.22c51.77,69.74,129.65,108.22,208.67,111.37,29.89,1.19,58.28,7.6,83.45,19.07A130.78,130.78,0,0,0,842.66,1330c-6.11-27.54-6-57-.91-86.93C853.76,1172.5,837.58,1096.42,790.76,1033.36Z" transform="translate(0 -18.44)"/><path class="cls-4" d="M308.06,840c46,42.73,90.2,87.14,133.78,132.09,10.9,11.23,21.57,22.66,32.28,34.06l16.06,17.09,15.89,17.26c10.53,11.55,21.26,22.93,31.63,34.62l31.09,35.08c20.35,23.71,41,47.2,60.74,71.36,9.92,12.06,20.13,23.89,29.74,36.19l29,36.75c38.08,49.48,74.63,100.16,107.92,153.06l-2.77,1.88-26.75-38.35-6.65-9.6-7-9.39-14-18.75-13.91-18.78c-4.62-6.27-9.53-12.33-14.28-18.5-9.61-12.27-19.09-24.63-28.8-36.82-39.22-48.46-79.25-96.28-120.53-143.1-20.86-23.22-41.47-46.65-62.54-69.7l-15.75-17.34L467.4,1012c-10.61-11.47-21.23-22.93-32-34.26Q403.52,943.37,371,909.61q-32.35-33.95-65.34-67.33Z" transform="translate(0 -18.44)"/><path class="cls-5" d="M1037.46,921.78c-29.45-92.65-86.35-166.54-153.72-210C823.51,672.84,780.09,612.37,764,542.58q-2.54-11-6-22.05c-35.41-111.42-132.39-180-216.61-153.28S417.57,506,453,617.46A274.14,274.14,0,0,0,481.79,680c37.52,59.83,52.24,131.53,38.49,200.83-12.29,61.93-8.9,131.7,13.18,201.15,32.92,103.6,100.18,183.75,178,224.19a271.52,271.52,0,0,1,78,60.64c36.55,41.22,88,60.66,135.31,45.63,51-16.21,82.84-68,85.1-128.48,1.27-34.23,9.27-67.76,22.32-99.45C1063,1109.67,1067.23,1015.45,1037.46,921.78Z" transform="translate(0 -18.44)"/><path class="cls-4" d="M608.51,476.41c34.4,70.14,66.53,141.33,97.91,212.85,7.85,17.88,15.41,35.88,23,53.86l11.43,27,11.2,27.06c7.4,18.07,15,36,22.24,54.2l21.59,54.46c13.93,36.49,28.17,72.87,41.42,109.62,6.65,18.36,13.65,36.59,19.93,55.09l19.09,55.41c24.69,74.12,47.54,148.9,66.56,224.69l-3.26.85-16.39-56.16-4.06-14-4.42-13.94-8.88-27.87-8.83-27.88c-2.93-9.29-6.2-18.48-9.28-27.73-6.29-18.46-12.43-37-18.84-55.38-26.11-73.49-53.19-146.64-81.78-219.22-14.57-36.19-28.83-72.49-43.65-108.57l-11-27.09-11.27-27c-7.51-18-15-36-22.69-53.94q-22.6-54-46-107.62-23.14-53.76-47.07-107.17Z" transform="translate(0 -18.44)"/><path class="cls-5" d="M2089.15,890.53c-11.58-24.14-19.87-49.4-21.8-76.91-4.87-69.31,35.42-133.14,65-192.82C2159.58,566,2179.8,484.22,2088,491.5c-73.13,5.79-159.11,78.67-168.92,154.67-11.61,90,32.18,203.38-19.74,285.09-72.63,114.3-125,88.11-125,281,0,82.42,45.65,127.89,97.94,152.93A218.84,218.84,0,0,0,2119,1325.09c58.09-56.22,92.63-137,81-218.18C2188.12,1025,2123.85,962.81,2089.15,890.53Z" transform="translate(0 -18.44)"/><path class="cls-4" d="M2027.79,1512.2a4.07,4.07,0,0,1-4-3.08c-45.52-181.72-70.3-346.45-73.65-489.63-2.69-114.72,8.31-216,32.66-301,21.74-75.83,50.34-124.45,70.51-151.89,22-30,38.8-41.78,39.51-42.27a4.07,4.07,0,0,1,4.65,6.69c-.17.12-16.72,11.84-38.08,41.07-19.75,27-47.76,74.91-69.06,149.73-24,84.2-34.76,184.59-32,298.39,3.43,142.35,28.12,306.16,73.39,486.88a4.07,4.07,0,0,1-3,4.94A4.19,4.19,0,0,1,2027.79,1512.2Z" transform="translate(0 -18.44)"/><path class="cls-5" d="M2162,687.18a30.55,30.55,0,0,0-11.56-.78c-22.88,2.63-32.28,26.76-39,45.62-5.75,16.16-12.54,35.76-9.14,53.26,3.68,18.93,23.77,34.36,38.35,15.15,16.57-21.84,41.44-55.36,41.59-84.3C2182.35,701.74,2174.27,690.51,2162,687.18Z" transform="translate(0 -18.44)"/><path class="cls-3" d="M2348.5,1213.45c9.36-61.64-13.05-132.42-24.23-197.61-5.92-34.47-8.65-68.68-3.11-103.4,5.5-34.53,21.72-71.87,6.77-106.27-30.15-69.3-101.8-37.77-142.84,14.41-47.63,60.54-60.65,159.47-78.74,235.65-10.9,45.92-27.33,93-33.08,139.82-9.53,77.53,8,131.35,45.08,167.7a112.24,112.24,0,0,0,133.26,17.86C2290.92,1359.72,2333.4,1312.91,2348.5,1213.45Z" transform="translate(0 -18.44)"/><path class="cls-4" d="M2184.58,1501.2a4.07,4.07,0,0,1-4-3.4c-.16-.94-15.76-95.08-16.17-225-.38-119.93,12.49-295.8,75.9-452.61a4.08,4.08,0,0,1,7.56,3c-34.73,85.88-76,233.57-75.31,449.53.4,129.21,15.89,222.7,16,223.63a4.07,4.07,0,0,1-3.34,4.69A4,4,0,0,1,2184.58,1501.2Z" transform="translate(0 -18.44)"/><g class="cls-6"><path class="cls-7" d="M1484.16,2947.14c-56-1.7-84.87-8.37-99.82-14.52,0,5.56,0,11.23.14,17.09.17,6.27,4.8,11.29,10.51,11.26l307.21-1.21c9.8,0,15.56-11.39,11.34-20.39C1673.25,2942.6,1570.64,2949.78,1484.16,2947.14Z" transform="translate(0 -18.44)"/><path class="cls-8" d="M1397.71,2830.7a56.36,56.36,0,0,1,56.15-41l25.65.87c136.46,33.09,205.37,108.75,232.4,146.73a13.49,13.49,0,0,1,1.21,2.32c-40.29,3.22-142.89,10.41-229.37,7.77-56-1.71-84.87-8.37-99.82-14.52C1384.3,2889.22,1390.83,2854.91,1397.71,2830.7Z" transform="translate(0 -18.44)"/><path class="cls-9" d="M1396,2666.33l17,144.78c-.24,15.1,10.29,26.91,23.5,28l56.51,4.42c13.21,1.11,39.09-6.87,39.32-22l41.46-155.25Z" transform="translate(0 -18.44)"/><path class="cls-10" d="M988.39,2947.14c55.95-1.7,84.87-8.37,99.81-14.52,0,5.56,0,11.23-.13,17.09-.18,6.27-4.81,11.29-10.51,11.26l-307.21-1.21c-9.81,0-15.57-11.39-11.34-20.39C799.3,2942.6,901.91,2949.78,988.39,2947.14Z" transform="translate(0 -18.44)"/><path class="cls-11" d="M1074.83,2830.7a56.34,56.34,0,0,0-56.14-41l-25.65.87c-136.46,33.09-205.37,108.75-232.41,146.73a14.23,14.23,0,0,0-1.21,2.32c40.29,3.22,142.9,10.41,229.38,7.77,56-1.71,84.87-8.37,99.82-14.52C1088.25,2889.22,1081.72,2854.91,1074.83,2830.7Z" transform="translate(0 -18.44)"/><path class="cls-12" d="M1076.57,2666.33l-17,144.78c.23,15.1-10.29,26.91-23.5,28l-56.51,4.42c-13.21,1.11-39.09-6.87-39.32-22l-41.47-155.25Z" transform="translate(0 -18.44)"/><path class="cls-13" d="M1834,1578.76l-597.19,1.7-598.1-1.7s-57.13,364.51,117.79,618.43c56.42,169.27,89.93,394.4,112.5,448.88A690,690,0,0,1,902.5,2751h186.2l78.1-600.1c3.74-28.81,28.28-49.11,57.32-49.11h25.4c28,0,51.61,18.26,55.21,46l97.68,607.05,166.86-5.73a717.48,717.48,0,0,1,33.74-104c22.57-54.48,56.31-278.52,112.73-447.8C1890.66,1943.43,1834,1578.76,1834,1578.76Z" transform="translate(0 -18.44)"/><path class="cls-14" d="M1756.89,1706.1C1600.56,1802.51,1529,1890.53,1281.48,1901v.33c-9.77.43-22.1,3.94-34,3.94H1225.1c-11.93,0-31.55-3.51-45.67-3.94V1901c-245.35-10.5-313.26-98.52-469.59-194.93-174.94-107.91-76.86-361-37.33-490.39s23.78-306.56,74.56-495.38c34.11-127,161.7-184.09,241.26-207.88,12.86-3.89,24.65-7.89,34.47-10.18,19.8-4.49,32.35-7.22,32.35-7.22H1417.4s12.27,2.73,32.08,7.22c9.73,2.29,21.33,5.77,34.19,9.66,79.56,23.79,206.6,81.18,240.71,208.14,50.78,188.82,33.14,366,72.75,495.51S1931.84,1598.19,1756.89,1706.1Z" transform="translate(0 -18.44)"/><path class="cls-15" d="M1449.48,502.27C1426.79,619.41,1340,706.43,1236.27,706.43c-103.85,0-190.77-87.11-213.29-204.42,19.81-4.49,32.17-7,32.17-7H1417.4S1429.67,497.78,1449.48,502.27Z" transform="translate(0 -18.44)"/><path class="cls-16" d="M1069.82,376.63s-60.82-44.51-55.24,52.11,45.25,78.16,45.25,78.16Z" transform="translate(0 -18.44)"/><path class="cls-17" d="M1395.09,376.63s60.81-44.51,55.24,52.11-45.26,78.16-45.26,78.16Z" transform="translate(0 -18.44)"/><path class="cls-18" d="M1074.93,296.82c-23.23,95.95-55.74,264.09,29.7,338,54.78,47.36,136.93,51.86,203.53,34.63,169.34-43.81,101-311.35,77.64-437.48C1385.8,231.93,1128.53,133.19,1074.93,296.82Z" transform="translate(0 -18.44)"/><path class="cls-19" d="M1059.3,370.69s10.52-145.81,75.41-107.72,81.81,67.52,138.24,50.69,76-89,101.57-36.59S1415.6,411.8,1415.6,411.8s18.16-100.87,13.93-143.19S1428.12,112,1335,121.9c0,0-83.23,48-167.87,40.91C1060.68,153.94,1022.26,292.61,1059.3,370.69Z" transform="translate(0 -18.44)"/><path class="cls-20" d="M1521.22,1265.93a4.23,4.23,0,0,1-2.28-.67c-246.47-157.85-557.4-45.88-560.51-44.73a4.23,4.23,0,0,1-2.93-7.94c3.15-1.16,318-114.55,568,45.54a4.23,4.23,0,0,1-2.28,7.8Z" transform="translate(0 -18.44)"/><path class="cls-21" d="M1005.44,957.53c65.25-23.3,232.58-82.12,297-96a22.23,22.23,0,0,1,26,15.48l.22.76a46.84,46.84,0,0,1-28.5,56.91c-63.79,24-196.28,72.18-268.62,87.2A39.37,39.37,0,0,1,987.68,1000l-.27-.61A31.05,31.05,0,0,1,1005.44,957.53Z" transform="translate(0 -18.44)"/><path class="cls-22" d="M1014.21,987c37-9.12,281.11-75.69,307.48-120.42a22.2,22.2,0,0,0-19.27-5c-64.4,13.85-231.73,72.67-297,96a31.23,31.23,0,0,0-20.73,29.21C989.93,989.73,998.93,990.74,1014.21,987Z" transform="translate(0 -18.44)"/><path class="cls-23" d="M976.22,933.91c46-17,226.49-82.85,312.45-98.52a10.86,10.86,0,0,1,12.8,10.41,59.31,59.31,0,0,1-2.2,17.88c-1.19,4.11-4.82,6.42-8.35,8.83-53.12,36.33-187,86.85-293.75,94.87,0,0-13,3-26.1-18.45A10.27,10.27,0,0,1,976.22,933.91Z" transform="translate(0 -18.44)"/><path class="cls-21" d="M1046.28,878.14,971,928.2a1.91,1.91,0,0,0,1.18,3.5c25.22-1.69,110.71-6.84,160.92-2.36a86.68,86.68,0,0,0,59.31-16.71c39.47-29.25,104.36-77.74,106.66-82.06,3.32-6.23-19.94-14.14-67.38-3S1046.28,878.14,1046.28,878.14Z" transform="translate(0 -18.44)"/><path class="cls-24" d="M959.53,866.36c-.46,11.34,1.81,30.6,22.48,46.32a27.41,27.41,0,0,0,24.44,4.38c44-13.11,198.71-59.44,250.59-78.34a37.29,37.29,0,0,0,24.47-30.48c1.17-10-1.64-21.5-14.76-31.25a24.63,24.63,0,0,0-21.65-3.77L969.17,854.11A13.39,13.39,0,0,0,959.53,866.36Z" transform="translate(0 -18.44)"/><path class="cls-25" d="M1007.43,840.42s39,3.79,59.71,9.86,23.76-3.32,40.41-6.43,47,4.6,54.55-11.38-19-28.12,8.56-40.41S1007.43,840.42,1007.43,840.42Z" transform="translate(0 -18.44)"/><path class="cls-25" d="M1183.21,787.59s69.5-35.48,92.44-35.94,25.13,3.43,12.6,18.33-17.31,18.95-43.22,26.18S1148.6,819,1183.21,787.59Z" transform="translate(0 -18.44)"/><path class="cls-25" d="M1043.79,833.92s-77.49,9.23-96.8,21.63-19,16.84-.26,22.24,24.94,6.1,50.48-2.33S1090,840.71,1043.79,833.92Z" transform="translate(0 -18.44)"/><path class="cls-22" d="M1050.66,667.57C951,702.52,927.44,790.22,935.23,838.87c12.62,3,50.95-1.39,166.64-41.52,108.19-37.53,147.26-53.12,160.78-63.79C1244,694.2,1188.89,619.09,1050.66,667.57Z" transform="translate(0 -18.44)"/><path class="cls-21" d="M935.23,838.87a78.55,78.55,0,0,0,3.91,15.26c3.35,8.84,9.59,16,18.84,14.08,51.17-10.87,208-47.4,299.39-104.18a19.94,19.94,0,0,0,7.83-24.78q-1.14-2.68-2.55-5.69c-13.52,10.67-52.59,26.26-160.78,63.79C986.18,837.48,947.85,841.88,935.23,838.87Z" transform="translate(0 -18.44)"/><path class="cls-21" d="M998.7,700.32c8.46-6.86,10.64.68,3.09,10.15S984.59,711.79,998.7,700.32Z" transform="translate(0 -18.44)"/><path class="cls-21" d="M1029.65,686.35c-10.89,3.31-19.46,19.6-6.28,13.64S1039.79,683.26,1029.65,686.35Z" transform="translate(0 -18.44)"/><path class="cls-21" d="M1019.76,709.56c-8.64,5.18-4.49,13.1,4.75,7S1026.38,705.59,1019.76,709.56Z" transform="translate(0 -18.44)"/><path class="cls-21" d="M1051.05,675.27c-6.92,2.93-8.48,15,2.9,9.55S1062,670.63,1051.05,675.27Z" transform="translate(0 -18.44)"/><path class="cls-21" d="M1047.52,704.38c-7.17,3.84-7.73,23.86,5.44,17.89S1058.72,698.36,1047.52,704.38Z" transform="translate(0 -18.44)"/><path class="cls-21" d="M1078.9,696.13c-4.57,2.09-6.07,20.75,2.16,15.64S1087.49,692.22,1078.9,696.13Z" transform="translate(0 -18.44)"/><path class="cls-21" d="M1078.57,671.46c-6.56,2-11.13,10.56,4.75,7S1088.71,668.38,1078.57,671.46Z" transform="translate(0 -18.44)"/><path class="cls-21" d="M1107.8,662.57c-8.15.9-11.13,10.56-.8,8.07S1117.89,661.46,1107.8,662.57Z" transform="translate(0 -18.44)"/><path class="cls-21" d="M1095.35,685.91c-4.22-1.27-2.49,4.67,4.44,3.87S1099.66,687.21,1095.35,685.91Z" transform="translate(0 -18.44)"/><path class="cls-21" d="M1136.44,668.85c-9.14-2.75-23.81,5.29-2.18,7.83S1145.05,671.45,1136.44,668.85Z" transform="translate(0 -18.44)"/><path class="cls-21" d="M977,731.71c6.91-8.42,15-2,7.55,5.52S969.83,740.4,977,731.71Z" transform="translate(0 -18.44)"/><path class="cls-26" d="M1110.61,781.67A.87.87,0,0,1,1110,780c3.51-1.56,7-3.14,10.24-4.71a.87.87,0,0,1,.75,1.58c-3.3,1.57-6.76,3.16-10.28,4.73Z" transform="translate(0 -18.44)"/><path class="cls-26" d="M1066.12,796.07c-58.43,17.78-110.58,28.31-111.19,28.44a.88.88,0,0,1-1-.69.87.87,0,0,1,.69-1c.72-.15,73.54-14.86,143.51-38.88a.87.87,0,1,1,.56,1.65C1087.79,789.3,1076.85,792.81,1066.12,796.07Z" transform="translate(0 -18.44)"/><path class="cls-27" d="M883.57,556.92S338.19,776.07,484.4,1270C609.27,1518.49,686,1271,720.9,1172.55S928.59,879,921.5,768.29,883.57,556.92,883.57,556.92Z" transform="translate(0 -18.44)"/><path class="cls-28" d="M1590.84,556.92S2136.22,776.07,1990,1270c-124.87,248.51-201.62,1.06-236.5-97.43S1545.82,879,1552.91,768.29,1590.84,556.92,1590.84,556.92Z" transform="translate(0 -18.44)"/><path class="cls-29" d="M495.39,1290.81c-2.21-5.8,68.16-293,413.68-390l85.86,70.52S640.09,1669,495.39,1290.81Z" transform="translate(0 -18.44)"/><path class="cls-30" d="M1970.21,1185.46c-2.22-5.8-246.45-172.49-568.37-13.85l-16.78,109.83S2115.19,1563.53,1970.21,1185.46Z" transform="translate(0 -18.44)"/><path class="cls-31" d="M903.17,830c19.38-9.84,51-83,61.22-61.37s3.05,53.85,7.37,63.07,32.48,60,25.48,85.64c-5,18.52-10.43,74.34-13,104a20.84,20.84,0,0,1-40.53,4.76C942.43,1022.35,883.8,839.84,903.17,830Z" transform="translate(0 -18.44)"/><polygon class="cls-32" points="1366.7 974.97 1384.91 847.23 1391.17 838.44 1386.48 834.41 1394.19 830.5 1389.47 821.85 1396.57 821.85 1393.02 813.53 1419.28 748.62 1402.09 743.67 1378.43 808.28 1371.73 809.83 1375.67 816.52 1370.15 821.24 1373.7 830.71 1366.7 838.52 1371.33 844.9 1346.22 972.18 1366.7 974.97"/><polygon class="cls-33" points="1486.09 1370.04 1240.82 1372.58 1211.17 1032.64 1486.09 1009.8 1486.09 1370.04"/><path class="cls-34" d="M1486.09,1028.24l-274.92,22.83,29-42.87a32.17,32.17,0,0,1,25-13.8l166.13-8.81a20.76,20.76,0,0,1,15.32,5.51Z" transform="translate(0 -18.44)"/><path class="cls-35" d="M1240.82,1391l245.27-2.53-43.38,31.75a20.77,20.77,0,0,1-11.64,4l-141.1,4.58a20.8,20.8,0,0,1-14.89-5.52Z" transform="translate(0 -18.44)"/><path class="cls-3" d="M1242.05,1115.9l27.27,200.71a9.42,9.42,0,0,0,10.17,7.81L1442.22,1313a9.22,9.22,0,0,0,8.83-9V1094.13c0-5.37-5-9.54-10.63-8.92l-190,20.63A9.11,9.11,0,0,0,1242.05,1115.9Z" transform="translate(0 -18.44)"/><polygon class="cls-36" points="1258.34 1038.98 1293.38 1363.7 1336.5 1363.7 1336.5 1031.37 1258.34 1038.98"/><path class="cls-37" d="M1531.72,1126.8c-19.38-9.83-51-83-61.22-61.36s-3,53.85-7.37,63.07-32.48,60-25.48,85.63c5,18.53,10.43,74.35,13,104a20.84,20.84,0,0,0,40.53,4.76C1492.46,1319.13,1551.1,1136.63,1531.72,1126.8Z" transform="translate(0 -18.44)"/></g><path class="cls-38" d="M2089.66,1502c12.67,1.1,34.68,2.88,52,3.64,10.43.46,16.43-.56,19.89-1.94,0,.39,0,.75,0,1.1a3.58,3.58,0,0,1-3.41,3.38,608,608,0,0,1-68.12.07,2.55,2.55,0,0,1-2.09-3.83A22.21,22.21,0,0,1,2089.66,1502Z" transform="translate(0 -18.44)"/><path class="cls-39" d="M2141.68,1505.6c-17.34-.76-39.35-2.54-52-3.64,12.46-15.29,52-25.6,52-25.6h11.18a46.94,46.94,0,0,1,8.71,27.3C2158.11,1505,2152.11,1506.06,2141.68,1505.6Z" transform="translate(0 -18.44)"/><path class="cls-40" d="M2154.74,1458.12l-1,20.69a4.73,4.73,0,0,1-4,4.45,18.34,18.34,0,0,1-8.4-.7,5.58,5.58,0,0,1-3.75-4.29l-3.62-20.15Z" transform="translate(0 -18.44)"/><path class="cls-41" d="M2299.87,1505.45c5.5-.77,8-3.63,9-6.68l0,.08c.81,3.22-1.07,6.56-4.82,8.15a31.4,31.4,0,0,1-13.33,2.09c-4.13-.17-7.91-1.88-10-4.61l0,0C2284.88,1506.48,2290.7,1506.73,2299.87,1505.45Z" transform="translate(0 -18.44)"/><path class="cls-42" d="M2274,1458h9.21c14-.29,22.85,29.32,25.74,40.78-1.05,3-3.53,5.91-9,6.68-9.17,1.28-15,1-19.13-1-7.58-10-11.34-24.6-13.15-33.13A11.63,11.63,0,0,1,2274,1458Z" transform="translate(0 -18.44)"/><path class="cls-43" d="M2282,1438.78l5.11,20.36a5.52,5.52,0,0,1-2.87,6.26c-2.86,1.46-6.89,3-10.6,2.56a4.61,4.61,0,0,1-3.76-3.08l-7.51-21.41Z" transform="translate(0 -18.44)"/><path class="cls-44" d="M2288.08,1444.67c-6.37,5.64-27.07,6.39-27.07,6.39-74.59-179-105.1-204.45-105.1-204.45,10.77,67.57,1.73,217.16,1.73,217.16-12.3,5.43-28.17,0-28.17,0a1153.4,1153.4,0,0,0-38.09-283.15c50.41-1.13,77.22-18.38,86-25.31C2219.38,1223.06,2288.08,1444.67,2288.08,1444.67Z" transform="translate(0 -18.44)"/><path class="cls-45" d="M2164.55,949.44c9.54,47.6,6.12,132.78,3.88,171.64-.63,10.92,7,26.06,13.15,36.39a3.24,3.24,0,0,1-1.31,4.56c-10.31,5.3-45.27,21.73-85.77,23.78a5.8,5.8,0,0,1-5.82-4.32c-30-112.19-64.94-183.89-64.94-183.89C2062.27,936.07,2164.55,949.44,2164.55,949.44Z" transform="translate(0 -18.44)"/><path class="cls-46" d="M2150.82,1242.37a2.36,2.36,0,0,0,1.24-.35,2.4,2.4,0,0,0,.8-3.28,74.93,74.93,0,0,0-29.58-25.67,2.39,2.39,0,1,0-2.07,4.3,71.5,71.5,0,0,1,27.57,23.86A2.39,2.39,0,0,0,2150.82,1242.37Z" transform="translate(0 -18.44)"/><path class="cls-47" d="M2224.4,1086c-3.06,22.17-12.12,46.36-30.23,72l-6.89-5.62s7.95-32.25,3.43-68.85C2201.89,1081.44,2215.08,1083.68,2224.4,1086Z" transform="translate(0 -18.44)"/><path class="cls-48" d="M2153.89,1008.17l10.66-58.73s71.21,54.43,59.85,136.6c-9.32-2.36-22.51-4.6-33.69-2.42C2187.45,1057.25,2177.73,1028.62,2153.89,1008.17Z" transform="translate(0 -18.44)"/><path class="cls-49" d="M2023.74,997.6l27.48,59.2c-4.44,35.74-23.64,51.19-44.34,57.12a125.62,125.62,0,0,0-9.23-38.55C2024.1,1048.06,2023.74,997.6,2023.74,997.6Z" transform="translate(0 -18.44)"/><path class="cls-50" d="M1997.65,1075.37a125.62,125.62,0,0,1,9.23,38.55c-55.23,21.43-69.84-20.13-69.84-20.13l10.2-1.8C1970.29,1094.42,1986.4,1087,1997.65,1075.37Z" transform="translate(0 -18.44)"/><path class="cls-51" d="M2049.06,924.52l13.27,48.78a9.5,9.5,0,0,0,12.69,6.32,193.41,193.41,0,0,0,19.13-8.74,12.79,12.79,0,0,0,4.51-18.38l-27.59-41.13Z" transform="translate(0 -18.44)"/><path class="cls-52" d="M2056.38,872.16c-.65.55-28.71,49-28.71,49l28,15.44,33.42-41.94S2067.21,863,2056.38,872.16Z" transform="translate(0 -18.44)"/><path class="cls-53" d="M2075.9,898.88,2060,922.33a3.65,3.65,0,0,1-.72.8c-1.69,1.44-7.89,6-12.12-.67-3.84-6-7.43-11.44-11.56-13.34a4,4,0,0,0-5.07,1.61A170.25,170.25,0,0,0,2019,934.6a3.94,3.94,0,0,0,2,4.92c5.56,2.64,17.45,7.88,28,9.85a3.94,3.94,0,0,0,3.8-1.38c4.48-5.49,18.18-22.14,22.71-26.19,4.25-3.8,11.71-1.72,14.77-.62a3.92,3.92,0,0,0,3.06-.18c3.38-1.7,10.21-6.48,4.78-15.76a4,4,0,0,1,1.53-5.49c3.93-2.15,8.68-6.53,5.12-14.44s-10.95-8.82-15.69-8.37a4,4,0,0,1-4.16-2.9,3.14,3.14,0,0,0-2.74-2.28,3.88,3.88,0,0,1-3-4.91c1.18-4.24,1.06-10-5.71-14.23-12-7.49-23.5,3-26.77,12.25s10.23,16.61,18.89,18.19c6.59,1.21,9.71,8.86,10.83,12.46A3.93,3.93,0,0,1,2075.9,898.88Z" transform="translate(0 -18.44)"/><path class="cls-54" d="M2069.65,930.28s6.39-15.83,13.41-14.85,12.2,8.31,3,15.73C2074.67,940.4,2069.65,930.28,2069.65,930.28Z" transform="translate(0 -18.44)"/><path class="cls-55" d="M1941.13,1101.39c-2.78,2.18-12.3-2.36-18.13-5.49a6.71,6.71,0,0,1-3.24-7.93c1.4-4.42,3.74-10.13,6.62-10.85C1931.15,1075.93,1952.59,1092.44,1941.13,1101.39Z" transform="translate(0 -18.44)"/><path class="cls-22" d="M2230.46,1300.27c-26.55,51-40.91,87.24-209.3,121.55s-303.65,82.85-414,72.2c-45.84-4.43-64-17.42-65.17-32.47-1.68-21.15,30.08-46.33,65.17-57.35,60-18.86,209.72-108.16,231-171.36s101.94-120.06,101.94-120.06h5c42-17.37,241.76,96.32,280.63,161C2232.16,1284.42,2234.22,1293.05,2230.46,1300.27Z" transform="translate(0 -18.44)"/><path class="cls-21" d="M2230.46,1300.27c-26.55,51-40.91,87.24-209.3,121.55s-303.65,82.85-414,72.2c-45.84-4.43-64-17.42-65.17-32.47,8.45,6.94,28.35,15.62,73.45,9.52,69.8-9.47,311.16-56.79,362-74.54s168-33.13,214.15-101.75c14-20.78,25.53-25.72,34.14-21.72C2232.16,1283.73,2234.22,1293.05,2230.46,1300.27Z" transform="translate(0 -18.44)"/><path class="cls-21" d="M2253.34,1297.19c-19.9,21.3-43,38.53-43,38.53-44-.45-28.54-45.27-28.54-45.27a2.81,2.81,0,0,1-1.39-2.22v0c-2.17-8.07-24.86-36.3-57-57.71-37.86-25.22-184.58-102.53-197.43-108.4-5.68-2.6-8.71-16.63-5.16-32.7,3.84-17.34,15.47-37,39.89-47.21a81.55,81.55,0,0,1,12.84-4.14c60-14.19,302.87,172,307.6,206.65C2283.26,1260.19,2269.36,1280,2253.34,1297.19Z" transform="translate(0 -18.44)"/><path class="cls-56" d="M1966.22,1186.94a19,19,0,0,0-6.08-7.76,37.08,37.08,0,0,0-9.55-5.77s-.42,1.23-1.2,3.44c-13.53,2.55-29.58,17.57-48.54,32.41-18.63,15.38-36.81,27.83-42.14,40.54-1.14.11-2.22.18-3.23.23-.22,3.08,2,8.21,3.31,10.78.12.26.26.52.39.78.26.5.43.79.43.79h0c7.36,14.39,49.28,23,81.5-3.05,27.53-21.88,32.12-57.37,25.45-72.13h0S1966.23,1187,1966.22,1186.94Z" transform="translate(0 -18.44)"/><path class="cls-57" d="M1953.18,1175c14.85,7,16.66,51.6-16.76,78.54s-76.64,15.52-80.31-.49c-4.38-16.28,18.52-30.92,40.28-49.3C1919,1186.4,1938.22,1167.19,1953.18,1175Z" transform="translate(0 -18.44)"/><path class="cls-58" d="M1898.13,1350.39c-2.18,26.43,39.93,29.69,58,28.65a103.28,103.28,0,0,0,27.26-5.19c37.27-13,55.93-27,54.06-53-29.07,17.75-139.35,26.87-139.35,26.87Z" transform="translate(0 -18.44)"/><path class="cls-59" d="M2017.18,1303.32a18.83,18.83,0,0,0-5.06-.64c-13.81.17-82.31,2.18-102.66,24.83-22.68,25.24-10.06,45,44.36,43.38C2007.41,1369.34,2071.72,1318.07,2017.18,1303.32Z" transform="translate(0 -18.44)"/><path class="cls-60" d="M1674.48,1415.74c-2.17,20.75,30.84,23.31,45,22.49a79.52,79.52,0,0,0,21.15-4.07c29.24-10.21,44.27-21.2,42.81-41.63-22.83,13.93-109,21.09-109,21.09Z" transform="translate(0 -18.44)"/><path class="cls-61" d="M1766.9,1378.81a14.81,14.81,0,0,0-4-.51c-10.84.14-64.6,1.71-80.57,19.49-17.8,19.81-7.9,35.29,34.82,34C1759.24,1430.62,1809.7,1390.38,1766.9,1378.81Z" transform="translate(0 -18.44)"/><g class="cls-62"><path class="cls-63" d="M1931.73,1190.93a5.2,5.2,0,0,0-2.67,1.32c-3.45,3.22-13.48,13.25-6.3,15C1931.08,1209.24,1947.47,1188.16,1931.73,1190.93Z" transform="translate(0 -18.44)"/><path class="cls-63" d="M1908,1225.27s-28.4,5.62-16.27,14.5S1922.76,1225,1908,1225.27Z" transform="translate(0 -18.44)"/><path class="cls-63" d="M1938.31,1221.92s-8.74,8-2.83,11.59S1947.93,1219.46,1938.31,1221.92Z" transform="translate(0 -18.44)"/></g><g class="cls-64"><path class="cls-63" d="M2002.2,1317.56a8.47,8.47,0,0,0-3.23-1.49c-3.16-.87-23.51-3-24.15,3-.56,5.32,15.45,6.21,18.41,6.11C1997.9,1325,2005.76,1320.56,2002.2,1317.56Z" transform="translate(0 -18.44)"/><path class="cls-63" d="M1945,1326.72s-32.54,4.44-23.37,18.64,24,1.48,30.47-3.26S1953.57,1324.9,1945,1326.72Z" transform="translate(0 -18.44)"/><path class="cls-63" d="M1984,1339.39c-6.55.3-16,5.06-17.26,8.34-3.27,8.65,26.71,4.12,23.29-5.53C1989.26,1340,1986.92,1339.26,1984,1339.39Z" transform="translate(0 -18.44)"/></g><path class="cls-65" d="M2025.6,1215.51s-22.13-2.47-22.5,18.48,20.92,40.68,26.44,49.35,22.88,30.76,24.45,19.33-29.18-34.31-32.34-49.3-18.14-20.72-.78-28.1S2036.64,1218.67,2025.6,1215.51Z" transform="translate(0 -18.44)"/><path class="cls-66" d="M1819,1302.67s39-4.67,41.41,17.38,3.54,58.39-20.71,59.15-45-6.93-44.37-12.25,4.14.59,17.75-.59,26.62,2.69,29-14-.59-30.67-7.1-32.28-1.78,10.22-11.24,9.63-5.33-11.09-7.69-14.71S1803.57,1305.82,1819,1302.67Z" transform="translate(0 -18.44)"/><path class="cls-67" d="M1662,1399.29s37.46-33.52,39.83-31.75,10,4.73,5.91,7.69-34.9,27.21-40.82,29S1662,1399.29,1662,1399.29Z" transform="translate(0 -18.44)"/><g class="cls-62"><path class="cls-63" d="M1742.93,1383.65s-23.37,1.92-26.32,8.88,9.16,6.66,21,6.07S1761.8,1385.78,1742.93,1383.65Z" transform="translate(0 -18.44)"/><path class="cls-63" d="M1697.82,1401.49a5.6,5.6,0,0,0-5.08.33c-2.72,1.6-4.88,4-4.53,7.72.89,9.17,5.92,11,13.9,8.58,5.83-1.73.32-6.94-1-12.72A5.63,5.63,0,0,0,1697.82,1401.49Z" transform="translate(0 -18.44)"/><path class="cls-63" d="M1742.34,1409c-3.14-1.86-10.67-2.33-15.88-2.42a5.63,5.63,0,0,0-5.11,8.2c.9,1.74,2.65,3.07,5.9,3.07C1736.72,1417.82,1747.37,1412,1742.34,1409Z" transform="translate(0 -18.44)"/></g><path class="cls-68" d="M1779.9,1326.54s-17.81,7-27.24,14.22-7.07,17.32,9.5,16.73S1812.67,1325.27,1779.9,1326.54Z" transform="translate(0 -18.44)"/><path class="cls-69" d="M1908.44,1284.92A16.35,16.35,0,0,0,1889,1301a33.27,33.27,0,0,1-.28,4.85c-1.12,7.83,9.1,5,24.7-3.63C1924.85,1295.89,1923.3,1287.81,1908.44,1284.92Z" transform="translate(0 -18.44)"/><path class="cls-70" d="M1909.46,1150.44s-27.81,7.35-29,23.49,14,5.28,23.58-.23S1925.39,1149.22,1909.46,1150.44Z" transform="translate(0 -18.44)"/><path class="cls-71" d="M2113.31,1268.78s-34.94,11.52-36.43,36.82,17.64,8.28,29.64-.36S2133.34,1266.87,2113.31,1268.78Z" transform="translate(0 -18.44)"/><path class="cls-72" d="M1978.4,1256.53s-11.17,28.57,3,27.3S2003,1256.53,1978.4,1256.53Z" transform="translate(0 -18.44)"/><path class="cls-73" d="M1821.31,1401s-41,12.58-19.72,18S1843.4,1402.78,1821.31,1401Z" transform="translate(0 -18.44)"/><path class="cls-74" d="M1651.73,1423.74s-53.63-.23-56.79,8.17-26,6-22.08,13.13,9.79,7.88,39.21,4.73S1673,1430.05,1651.73,1423.74Z" transform="translate(0 -18.44)"/><path class="cls-75" d="M2256.39,1297.15v0c-22.8,21.3-44.54,38.53-44.54,38.53-44-.45-29.31-45.27-29.31-45.27s-2.15-.78-2.15-2.22v0c-2.17-8.07-24.86-36.3-57-57.71-37.86-25.22-184.58-101.69-197.43-107.56-5.68-2.6-8.63-17.75-5.08-31.86h0c2.46,0,2.25,22.35,42.43,31.81s118.24,50.6,154.92,76.56,50,80.17,83.15,93.18S2256.39,1297.15,2256.39,1297.15Z" transform="translate(0 -18.44)"/><path class="cls-76" d="M2186.5,1243a1.22,1.22,0,0,1-1.13-.76c-5-12.59-17-22.65-25.81-30-7.93-6.64-16.44-13.07-26-19.67a1.21,1.21,0,1,1,1.38-2c9.64,6.64,18.21,13.12,26.2,19.81,9,7.51,21.27,17.8,26.51,31a1.22,1.22,0,0,1-1.13,1.66Z" transform="translate(0 -18.44)"/><path class="cls-77" d="M2106.6,1175.05a1.22,1.22,0,0,1-.63-.17c-11.06-6.66-22.24-13-31.71-18.26-4.34-2.43-8.75-5-13.22-7.55-24.78-14.31-50.41-29.09-77.61-32-9.06-1-39.27-5.41-47.87-21.45-3.33-6.22-2.94-13.38,1.18-21.3,6.45-12.39,22.13-19.41,34.74-25l2.83-1.27a1.21,1.21,0,1,1,1,2.21l-2.84,1.28c-12.26,5.48-27.52,12.31-33.57,24-3.73,7.16-4.13,13.57-1.2,19,6.39,11.92,27.94,18.24,46,20.18,27.71,3,53.56,17.9,78.57,32.33,4.46,2.58,8.86,5.12,13.19,7.54,9.49,5.3,20.68,11.62,31.78,18.3a1.21,1.21,0,0,1-.63,2.25Z" transform="translate(0 -18.44)"/><path class="cls-78" d="M2201.9,1161.3l-23.82-21.73-18.86,1.64s-.18,5.61,9.56,9.84,21.3,12.35,21.3,12.35,7.32,13.76,14.8,4.38Z" transform="translate(0 -18.44)"/><path class="cls-63" d="M1871.77,1275.11l-2.5,5.83,0,0a1.11,1.11,0,0,0,.58,1.44,1.09,1.09,0,0,0,1.44-.58l2.47-5.92a1.07,1.07,0,0,0-.58-1.39,1.05,1.05,0,0,0-1.38.56Z" transform="translate(0 -18.44)"/><path class="cls-63" d="M1862.84,1294.29l-3,5.59v0A1.2,1.2,0,1,0,1862,1301l3-5.68a1.18,1.18,0,0,0-.5-1.59,1.17,1.17,0,0,0-1.57.49Z" transform="translate(0 -18.44)"/><path class="cls-63" d="M1852.3,1312.62l-3.46,5.31,0,0a1.31,1.31,0,0,0,2.2,1.44l3.45-5.42a1.29,1.29,0,0,0-.39-1.77,1.27,1.27,0,0,0-1.76.38Z" transform="translate(0 -18.44)"/><path class="cls-63" d="M1840.26,1330l-3.89,5,0,0a1.42,1.42,0,0,0,2.25,1.74l3.89-5.12a1.39,1.39,0,0,0-2.21-1.69Z" transform="translate(0 -18.44)"/><path class="cls-63" d="M1826.85,1346.34l-4.26,4.68,0,0a1.54,1.54,0,0,0,2.27,2.07l4.27-4.79a1.5,1.5,0,0,0-2.23-2Z" transform="translate(0 -18.44)"/><path class="cls-63" d="M1812.2,1361.56l-4.62,4.34,0,0a1.64,1.64,0,0,0,2.25,2.39l4.64-4.45a1.61,1.61,0,0,0-2.22-2.34Z" transform="translate(0 -18.44)"/><path class="cls-63" d="M1796.42,1375.61l-4.93,4,0,0a1.75,1.75,0,0,0,2.2,2.72l5-4.09a1.71,1.71,0,0,0-2.16-2.66Z" transform="translate(0 -18.44)"/><path class="cls-63" d="M1779.63,1388.43l-5.22,3.6,0,0a1.86,1.86,0,1,0,2.11,3.06h0l5.24-3.69a1.83,1.83,0,0,0-2.08-3Z" transform="translate(0 -18.44)"/><path class="cls-63" d="M1761.94,1400l-5.47,3.2,0,0a2,2,0,0,0,2,3.4h0l5.51-3.3a1.93,1.93,0,0,0-2-3.33Z" transform="translate(0 -18.44)"/><path class="cls-63" d="M1743.45,1410.13l-5.69,2.78,0,0a2.08,2.08,0,1,0,1.82,3.73h0l5.74-2.88a2,2,0,0,0-1.81-3.66Z" transform="translate(0 -18.44)"/><path class="cls-63" d="M1724.26,1418.89l-5.88,2.34-.05,0a2.19,2.19,0,0,0,1.63,4.07h0l5.94-2.44a2.16,2.16,0,0,0-1.62-4Z" transform="translate(0 -18.44)"/><path class="cls-63" d="M1704.47,1426.18l-6,1.89,0,0a2.29,2.29,0,0,0,1.37,4.38h0l6.13-2a2.27,2.27,0,0,0-1.38-4.32Z" transform="translate(0 -18.44)"/><path class="cls-63" d="M1684.19,1431.93l-6.16,1.42H1678a2.41,2.41,0,0,0,1.08,4.69h0l6.26-1.5a2.37,2.37,0,0,0-1.09-4.62Z" transform="translate(0 -18.44)"/><path class="cls-63" d="M1663.54,1436.07l-6.24.92h-.06a2.51,2.51,0,1,0,.73,5h0l6.36-1a2.48,2.48,0,0,0-.75-4.91Z" transform="translate(0 -18.44)"/><path class="cls-63" d="M1642.65,1438.55l-6.3.41h-.07a2.6,2.6,0,0,0,.34,5.18h0l6.43-.46a2.58,2.58,0,0,0-.36-5.14Z" transform="translate(0 -18.44)"/><path class="cls-63" d="M1621.63,1439.31l-6.3-.12h-.07a2.66,2.66,0,0,0-.1,5.32h0l6.43.08a2.64,2.64,0,0,0,.09-5.27Z" transform="translate(0 -18.44)"/><path class="cls-63" d="M1600.65,1438.27l-6.27-.67h-.07a2.72,2.72,0,1,0-.58,5.4h0l6.42.65a2.7,2.7,0,0,0,.56-5.37Z" transform="translate(0 -18.44)"/><path class="cls-63" d="M1579.82,1435.43l-6.21-1.17-.06,0a2.78,2.78,0,1,0-1,5.46h0l6.34,1.16a2.76,2.76,0,0,0,1-5.43Z" transform="translate(0 -18.44)"/><path class="cls-63" d="M1559.26,1431l-6.09-1.65-.06,0a2.84,2.84,0,0,0-1.49,5.48h0l6.23,1.65a2.82,2.82,0,0,0,1.46-5.44Z" transform="translate(0 -18.44)"/><path class="cls-63" d="M1539.12,1424.91l-5.95-2.11-.06,0a2.9,2.9,0,1,0-1.94,5.47h0l6.08,2.11a2.88,2.88,0,0,0,1.91-5.44Z" transform="translate(0 -18.44)"/><path class="cls-63" d="M1519.46,1417.39l-5.78-2.52-.06,0a3,3,0,0,0-2.37,5.43h0l5.91,2.54a2.94,2.94,0,0,0,2.34-5.4Z" transform="translate(0 -18.44)"/><path class="cls-63" d="M1500.38,1408.52l-5.61-2.91,0,0a3,3,0,1,0-2.79,5.37h0l5.73,2.93a3,3,0,0,0,2.75-5.34Z" transform="translate(0 -18.44)"/><path class="cls-63" d="M1481.92,1398.39l-5.41-3.26,0,0a3.08,3.08,0,1,0-3.19,5.28h0l5.52,3.29a3.07,3.07,0,0,0,3.16-5.26Z" transform="translate(0 -18.44)"/><path class="cls-63" d="M1464.13,1387.12l-5.21-3.59,0,0a3.15,3.15,0,1,0-3.58,5.18h0l5.31,3.62a3.12,3.12,0,0,0,3.54-5.15Z" transform="translate(0 -18.44)"/><path class="cls-63" d="M1447,1374.8l-5-3.88,0,0a3.21,3.21,0,1,0-3.94,5.06h0l5.1,3.92a3.19,3.19,0,0,0,3.9-5Z" transform="translate(0 -18.44)"/><path class="cls-63" d="M1430.66,1361.53l-4.77-4.15,0,0a3.27,3.27,0,0,0-4.29,4.93l4.88,4.2a3.25,3.25,0,0,0,4.26-4.91Z" transform="translate(0 -18.44)"/><path class="cls-63" d="M1415,1347.4l-4.56-4.41,0,0a3.33,3.33,0,0,0-4.64,4.79l4.67,4.46a3.31,3.31,0,0,0,4.59-4.77Z" transform="translate(0 -18.44)"/><path class="cls-63" d="M1400.13,1332.46l-4.32-4.62,0,0a3.39,3.39,0,0,0-5,4.63l4.43,4.69a3.37,3.37,0,0,0,4.92-4.62Z" transform="translate(0 -18.44)"/><path class="cls-63" d="M1386,1316.8l-4.08-4.83,0,0a3.45,3.45,0,1,0-5.27,4.46h0l4.18,4.89a3.44,3.44,0,0,0,5.23-4.46Z" transform="translate(0 -18.44)"/><path class="cls-63" d="M1372.65,1300.48l-3.85-5,0,0a3.52,3.52,0,0,0-5.58,4.28v0l4,5.08a3.5,3.5,0,0,0,5.53-4.28Z" transform="translate(0 -18.44)"/><path class="cls-63" d="M1360.08,1283.54l-3.61-5.2,0,0a3.58,3.58,0,1,0-5.87,4.09h0l3.7,5.27a3.56,3.56,0,0,0,5.83-4.08Z" transform="translate(0 -18.44)"/><path class="cls-63" d="M1348.3,1266l-3.39-5.34,0,0a3.6,3.6,0,0,0-6.08,3.86l3.45,5.42a3.59,3.59,0,1,0,6.06-3.86Z" transform="translate(0 -18.44)"/><path class="cls-63" d="M1337.24,1248.07l-3.19-5.48,0,0a3.62,3.62,0,1,0-6.26,3.64l3.24,5.55a3.61,3.61,0,1,0,6.24-3.64Z" transform="translate(0 -18.44)"/><path class="cls-63" d="M1326.86,1229.67l-3-5.59,0,0a3.64,3.64,0,1,0-6.43,3.43l3,5.66a3.63,3.63,0,1,0,6.4-3.43Z" transform="translate(0 -18.44)"/><path class="cls-63" d="M1317.14,1210.91l-2.79-5.7,0,0a3.66,3.66,0,1,0-6.57,3.23l2.83,5.76a3.66,3.66,0,1,0,6.56-3.24Z" transform="translate(0 -18.44)"/><path class="cls-63" d="M1308,1191.83l-2.62-5.78,0,0a3.68,3.68,0,1,0-6.7,3l2.65,5.84a3.68,3.68,0,0,0,6.7-3.05Z" transform="translate(0 -18.44)"/><path class="cls-63" d="M1299.5,1172.47l-2.45-5.85v0a3.7,3.7,0,0,0-6.83,2.87l2.49,5.91a3.7,3.7,0,0,0,6.81-2.87Z" transform="translate(0 -18.44)"/><path class="cls-63" d="M1291.5,1152.89l-2.3-5.92v0a3.73,3.73,0,0,0-6.94,2.71l2.34,6a3.72,3.72,0,0,0,6.92-2.72Z" transform="translate(0 -18.44)"/><path class="cls-63" d="M1284,1133.1l-2.17-6v0a3.74,3.74,0,0,0-7,2.56l2.2,6a3.74,3.74,0,1,0,7-2.57Z" transform="translate(0 -18.44)"/><path class="cls-63" d="M1276.9,1113.15l-2.06-6v0a3.77,3.77,0,1,0-7.13,2.43l2.08,6a3.76,3.76,0,1,0,7.11-2.44Z" transform="translate(0 -18.44)"/><path class="cls-63" d="M1270.19,1093.06l-2-6.06v0a3.78,3.78,0,1,0-7.2,2.32l2,6.09a3.78,3.78,0,1,0,7.19-2.33Z" transform="translate(0 -18.44)"/><path class="cls-63" d="M1263.81,1072.84l-1.86-6.1a3.8,3.8,0,1,0-7.28,2.2l1.88,6.13a3.8,3.8,0,0,0,7.26-2.23Z" transform="translate(0 -18.44)"/><path class="cls-63" d="M1257.71,1052.52l-1.79-6.13a3.82,3.82,0,1,0-7.34,2.13l1.8,6.15a3.82,3.82,0,0,0,7.33-2.15Z" transform="translate(0 -18.44)"/><path class="cls-63" d="M1251.84,1032.11l-1.73-6.13a3.85,3.85,0,1,0-7.41,2.06h0l1.74,6.16a3.84,3.84,0,1,0,7.39-2.1Z" transform="translate(0 -18.44)"/><path class="cls-63" d="M1246.15,1011.65l-1.68-6.15a3.87,3.87,0,1,0-7.46,2l1.7,6.17a3.86,3.86,0,1,0,7.44-2.05Z" transform="translate(0 -18.44)"/><path class="cls-63" d="M1240.59,991.15l-1.65-6.16a3.89,3.89,0,0,0-7.51,2l1.67,6.17a3.88,3.88,0,1,0,7.49-2Z" transform="translate(0 -18.44)"/><path class="cls-63" d="M1235.11,970.61l-1.65-6.17a3.9,3.9,0,1,0-7.54,2l1.65,6.17a3.9,3.9,0,0,0,7.54-2Z" transform="translate(0 -18.44)"/><path class="cls-63" d="M1229.64,950.06l-1.65-6.17a3.92,3.92,0,1,0-7.58,2l1.65,6.16a3.92,3.92,0,0,0,7.58-2Z" transform="translate(0 -18.44)"/><path class="cls-63" d="M1224.13,929.51l-1.67-6.16a3.94,3.94,0,1,0-7.61,2.06l1.67,6.16a3.94,3.94,0,1,0,7.61-2.06Z" transform="translate(0 -18.44)"/><path class="cls-63" d="M1218.53,909l-1.7-6.15a4,4,0,0,0-7.65,2.12v0l1.71,6.13a4,4,0,1,0,7.63-2.12Z" transform="translate(0 -18.44)"/><path class="cls-63" d="M1212.79,888.48l-1.76-6.14a4,4,0,1,0-7.66,2.2l1.77,6.13a4,4,0,1,0,7.65-2.19Z" transform="translate(0 -18.44)"/><path class="cls-63" d="M1206.85,868l-1.83-6.12a4,4,0,1,0-7.68,2.29l1.84,6.11a4,4,0,1,0,7.67-2.28Z" transform="translate(0 -18.44)"/><path class="cls-63" d="M1200.66,847.64l-1.91-6.1a4,4,0,1,0-7.69,2.41v0L1193,850v0a4,4,0,1,0,7.67-2.41Z" transform="translate(0 -18.44)"/><path class="cls-63" d="M1194.17,827.33l-2-6.07a4.05,4.05,0,0,0-7.69,2.55v0l2,6v0a4,4,0,0,0,7.67-2.55Z" transform="translate(0 -18.44)"/><path class="cls-63" d="M1187.3,807.14l-2.14-6a4,4,0,0,0-7.61,2.7v0l2.12,6v0a4,4,0,1,0,7.61-2.69Z" transform="translate(0 -18.44)"/><path class="cls-63" d="M1180,787.07l-2.27-6a4,4,0,0,0-7.52,2.85v0l2.25,5.94v0a4,4,0,1,0,7.52-2.85Z" transform="translate(0 -18.44)"/><path class="cls-63" d="M1172.27,767.17l-2.43-5.93a4,4,0,1,0-7.41,3v0l2.39,5.87v0a4,4,0,0,0,7.43-3Z" transform="translate(0 -18.44)"/><path class="cls-63" d="M1164,747.48l-2.58-5.87a4,4,0,0,0-7.3,3.22v0l2.55,5.8v0a4,4,0,1,0,7.31-3.21Z" transform="translate(0 -18.44)"/><path class="cls-63" d="M1155.21,728l-2.76-5.79a4,4,0,1,0-7.18,3.42l0,0,2.71,5.72,0,0a4,4,0,0,0,7.19-3.41Z" transform="translate(0 -18.44)"/><path class="cls-63" d="M1145.8,708.82l-3-5.7a4,4,0,0,0-7,3.63v0l2.9,5.63,0,0a4,4,0,0,0,7-3.63Z" transform="translate(0 -18.44)"/><path class="cls-63" d="M1135.75,689.94l-3.15-5.61a3.95,3.95,0,0,0-6.88,3.87l0,0,3.1,5.53,0,0a3.95,3.95,0,0,0,6.89-3.86Z" transform="translate(0 -18.44)"/><path class="cls-63" d="M1125,671.42l-3.35-5.48a3.93,3.93,0,0,0-6.7,4.1l0,0,3.3,5.4,0,0a3.93,3.93,0,1,0,6.71-4.09Z" transform="translate(0 -18.44)"/><path class="cls-63" d="M1113.6,653.31l-3.55-5.35a3.91,3.91,0,1,0-6.52,4.33l0,0,3.5,5.28,0,0a3.91,3.91,0,1,0,6.53-4.32Z" transform="translate(0 -18.44)"/><path class="cls-63" d="M1101.54,635.64l-3.74-5.22a3.89,3.89,0,0,0-6.33,4.54l0,0,3.68,5.15,0,0a3.9,3.9,0,1,0,6.34-4.54Z" transform="translate(0 -18.44)"/><path class="cls-63" d="M1088.85,618.42l-3.93-5.08a3.88,3.88,0,0,0-6.14,4.75l0,0,3.87,5,0,0a3.89,3.89,0,0,0,6.15-4.75Z" transform="translate(0 -18.44)"/><path class="cls-63" d="M1075.55,601.67l-4.12-4.94a3.86,3.86,0,0,0-5.93,4.95l0,0,4,4.87,0,0a3.87,3.87,0,1,0,6-4.94Z" transform="translate(0 -18.44)"/><path class="cls-63" d="M1061.65,585.4l-4.28-4.78a3.85,3.85,0,0,0-5.74,5.13l0,0,4.22,4.73,0,0a3.86,3.86,0,1,0,5.75-5.14Z" transform="translate(0 -18.44)"/><path class="cls-63" d="M1047.19,569.64l-4.45-4.63a3.83,3.83,0,1,0-5.53,5.31l0,0,4.39,4.57,0,0a3.84,3.84,0,0,0,5.55-5.31Z" transform="translate(0 -18.44)"/><path class="cls-63" d="M1032.17,554.4l-4.61-4.47a3.82,3.82,0,1,0-5.31,5.48l0,0,4.54,4.42,0,0a3.82,3.82,0,1,0,5.33-5.48Z" transform="translate(0 -18.44)"/><path class="cls-63" d="M1016.63,539.7l-4.76-4.31a3.8,3.8,0,0,0-5.1,5.64l0,0,4.7,4.26,0,0a3.81,3.81,0,1,0,5.11-5.64Z" transform="translate(0 -18.44)"/><path class="cls-63" d="M1000.58,525.55l-4.91-4.14a3.79,3.79,0,1,0-4.88,5.79l0,0,4.84,4.08,0,0a3.79,3.79,0,1,0,4.89-5.79Z" transform="translate(0 -18.44)"/><path class="cls-63" d="M984.05,512,979,508a3.77,3.77,0,0,0-4.65,5.93l0,0,5,3.91,0,0a3.78,3.78,0,0,0,4.67-5.94Z" transform="translate(0 -18.44)"/><path class="cls-63" d="M967.05,499l-5.2-3.78a3.75,3.75,0,0,0-4.42,6.07l0,0,5.12,3.74,0,0a3.76,3.76,0,0,0,4.44-6.07Z" transform="translate(0 -18.44)"/><path class="cls-63" d="M949.6,486.6,944.28,483a3.74,3.74,0,1,0-4.19,6.2h0l5.24,3.56,0,0a3.74,3.74,0,1,0,4.2-6.2Z" transform="translate(0 -18.44)"/><path class="cls-63" d="M931.73,474.85l-5.45-3.41a3.73,3.73,0,0,0-3.95,6.32l0,0,5.37,3.37,0,0a3.73,3.73,0,0,0,4-6.32Z" transform="translate(0 -18.44)"/><path class="cls-63" d="M913.45,463.73l-5.56-3.2a3.71,3.71,0,1,0-3.71,6.42l0,0,5.48,3.17,0,0a3.71,3.71,0,0,0,3.72-6.43Z" transform="translate(0 -18.44)"/><path class="cls-63" d="M894.79,453.28l-5.67-3a3.7,3.7,0,1,0-3.46,6.53l0,0,5.59,3,0,0a3.7,3.7,0,0,0,3.47-6.53Z" transform="translate(0 -18.44)"/><path class="cls-63" d="M875.77,443.51l-5.78-2.8a3.68,3.68,0,1,0-3.21,6.62h0l5.7,2.77,0,0a3.68,3.68,0,0,0,3.22-6.62Z" transform="translate(0 -18.44)"/><path class="cls-63" d="M856.4,434.42l-5.87-2.58a3.66,3.66,0,0,0-3,6.7l0,0,5.79,2.56h0a3.67,3.67,0,0,0,3-6.71Z" transform="translate(0 -18.44)"/><path class="cls-63" d="M836.72,426.06l-6-2.37a3.65,3.65,0,0,0-2.69,6.78h0l5.89,2.35h0a3.65,3.65,0,1,0,2.71-6.78Z" transform="translate(0 -18.44)"/><path class="cls-63" d="M816.74,418.42l-6-2.15a3.63,3.63,0,0,0-2.43,6.85h0l6,2.13h0a3.64,3.64,0,0,0,2.44-6.85Z" transform="translate(0 -18.44)"/><path class="cls-63" d="M796.47,411.55l-6.14-1.9a3.62,3.62,0,0,0-2.14,6.91h0l6,1.88h0a3.62,3.62,0,0,0,2.15-6.91Z" transform="translate(0 -18.44)"/><path class="cls-63" d="M775.92,405.53l-6.22-1.63a3.6,3.6,0,0,0-1.82,7l0,0,6.12,1.61h.05a3.6,3.6,0,0,0,1.83-7Z" transform="translate(0 -18.44)"/><path class="cls-63" d="M755.12,400.43l-6.3-1.34a3.59,3.59,0,0,0-1.49,7h0l6.18,1.32h.05a3.59,3.59,0,1,0,1.51-7Z" transform="translate(0 -18.44)"/><path class="cls-63" d="M734.07,396.35l-6.35-1a3.54,3.54,0,1,0-1.12,7h0l6.24,1h.06a3.56,3.56,0,0,0,1.15-7Z" transform="translate(0 -18.44)"/><path class="cls-63" d="M712.83,393.38l-6.4-.66a3.49,3.49,0,1,0-.72,6.95h0l6.28.68h.06a3.51,3.51,0,0,0,.76-7Z" transform="translate(0 -18.44)"/><path class="cls-63" d="M691.45,391.61l-6.44-.28a3.45,3.45,0,1,0-.3,6.89h0l6.3.3h.07a3.46,3.46,0,0,0,.33-6.92Z" transform="translate(0 -18.44)"/><path class="cls-63" d="M670,391.14l-6.45.14a3.4,3.4,0,1,0,.14,6.8h.06L670,398h.06a3.42,3.42,0,1,0-.11-6.83Z" transform="translate(0 -18.44)"/><path class="cls-63" d="M648.51,392.11l-6.43.59a3.35,3.35,0,0,0,.61,6.68h.06l6.28-.54h.08a3.37,3.37,0,1,0-.59-6.71Z" transform="translate(0 -18.44)"/><path class="cls-63" d="M627.16,394.62l-6.38,1.08a3.31,3.31,0,1,0,1.11,6.52H622l6.21-1h.08a3.32,3.32,0,1,0-1.08-6.56Z" transform="translate(0 -18.44)"/><path class="cls-63" d="M606.05,398.8l-6.27,1.59a3.26,3.26,0,1,0,1.61,6.32h.06l6.11-1.53.08,0a3.27,3.27,0,0,0-1.59-6.35Z" transform="translate(0 -18.44)"/><path class="cls-63" d="M585.35,404.73l-6.11,2.13a3.21,3.21,0,1,0,2.11,6.07l.07,0,6-2,.08,0a3.23,3.23,0,1,0-2.1-6.1Z" transform="translate(0 -18.44)"/><path class="cls-63" d="M565.24,412.46l-5.9,2.7a3.17,3.17,0,0,0,2.64,5.76l.08,0,5.72-2.59.09,0a3.18,3.18,0,0,0-2.63-5.79Z" transform="translate(0 -18.44)"/><path class="cls-63" d="M546,422.13l-5.58,3.28a3.12,3.12,0,1,0,3.16,5.38l.06,0L549,427.6l.08-.05a3.13,3.13,0,1,0-3.15-5.42Z" transform="translate(0 -18.44)"/><path class="cls-63" d="M527.75,433.67l-5.24,3.81a3.07,3.07,0,1,0,3.61,5l.06-.05,5.11-3.67.07-.05a3.09,3.09,0,1,0-3.61-5Z" transform="translate(0 -18.44)"/><path class="cls-63" d="M510.75,446.9l-4.85,4.28a3,3,0,1,0,4,4.54l.05-.05,4.74-4.14.06,0a3,3,0,0,0-4-4.58Z" transform="translate(0 -18.44)"/><path class="cls-63" d="M495.07,461.64l-4.45,4.69a3,3,0,0,0,4.33,4.1l.05-.05,4.34-4.55.06-.06a3,3,0,1,0-4.33-4.13Z" transform="translate(0 -18.44)"/><path class="cls-63" d="M480.77,477.71l-4,5.07a2.93,2.93,0,1,0,4.59,3.64l0-.05,3.94-4.92.05-.06a2.95,2.95,0,1,0-4.61-3.68Z" transform="translate(0 -18.44)"/><path class="cls-63" d="M467.93,495l-3.56,5.39a2.88,2.88,0,1,0,4.81,3.18l0,0,3.5-5.24.05-.06a2.9,2.9,0,1,0-4.83-3.22Z" transform="translate(0 -18.44)"/><path class="cls-63" d="M456.61,513.23l-3.1,5.67a2.84,2.84,0,1,0,5,2.72l0,0,3.05-5.52,0-.06a2.85,2.85,0,1,0-5-2.76Z" transform="translate(0 -18.44)"/><path class="cls-63" d="M446.86,532.38l-2.61,5.91a2.79,2.79,0,1,0,5.1,2.25l0,0,2.57-5.75,0-.07a2.8,2.8,0,1,0-5.12-2.29Z" transform="translate(0 -18.44)"/><path class="cls-63" d="M438.75,552.28l-2.1,6.1a2.75,2.75,0,0,0,5.19,1.79l0,0,2.08-6,0-.07a2.76,2.76,0,1,0-5.21-1.82Z" transform="translate(0 -18.44)"/><path class="cls-63" d="M432.35,572.79l-1.57,6.26a2.7,2.7,0,1,0,5.23,1.32v-.06l1.57-6.11,0-.06a2.72,2.72,0,1,0-5.26-1.35Z" transform="translate(0 -18.44)"/><path class="cls-63" d="M427.74,593.77l-1,6.39A2.65,2.65,0,0,0,432,601v-.06l1-6.23v-.07a2.67,2.67,0,0,0-5.26-.87Z" transform="translate(0 -18.44)"/><path class="cls-63" d="M425,615.08l-.44,6.44a2.6,2.6,0,1,0,5.19.36v-.06l.46-6.28v-.07a2.62,2.62,0,0,0-5.23-.39Z" transform="translate(0 -18.44)"/><path class="cls-63" d="M424.22,636.55l.16,6.46a2.56,2.56,0,1,0,5.11-.12v-.06l-.13-6.31v-.07a2.57,2.57,0,0,0-5.14.1Z" transform="translate(0 -18.44)"/><path class="cls-63" d="M425.5,658l.8,6.41a2.47,2.47,0,0,0,4.91-.59v-.08l-.73-6.26v-.07a2.5,2.5,0,1,0-5,.57Z" transform="translate(0 -18.44)"/><path class="cls-63" d="M428.9,679.25l1.43,6.29a2.39,2.39,0,0,0,4.67-1l0-.07-1.35-6.15,0-.08a2.42,2.42,0,0,0-4.72,1Z" transform="translate(0 -18.44)"/><path class="cls-63" d="M434.43,700l2.08,6.12a2.31,2.31,0,0,0,4.38-1.47l0-.07-2-6,0-.07a2.33,2.33,0,0,0-4.43,1.47Z" transform="translate(0 -18.44)"/><path class="cls-63" d="M442.06,720.11l2.67,5.86a2.22,2.22,0,0,0,4-1.83l0-.06-2.57-5.76,0-.06a2.25,2.25,0,1,0-4.11,1.83Z" transform="translate(0 -18.44)"/><path class="cls-63" d="M451.61,739.33l3.23,5.57a2.14,2.14,0,0,0,3.71-2.13l0,0-3.11-5.49,0-.06a2.16,2.16,0,0,0-3.76,2.14Z" transform="translate(0 -18.44)"/><path class="cls-63" d="M462.94,757.52l3.73,5.26a2.06,2.06,0,0,0,3.37-2.36l0,0-3.62-5.18,0-.05a2.08,2.08,0,0,0-3.42,2.38Z" transform="translate(0 -18.44)"/><path class="cls-63" d="M475.89,774.61l4.18,4.89a2,2,0,0,0,3-2.55l0,0L479,772.08l0-.05a2,2,0,0,0-3.06,2.58Z" transform="translate(0 -18.44)"/><path class="cls-63" d="M490.29,790.46l4.59,4.52a1.9,1.9,0,0,0,2.67-2.69l0,0L493,787.78l0,0a1.92,1.92,0,1,0-2.71,2.71Z" transform="translate(0 -18.44)"/><path class="cls-63" d="M506,805l5,4.1a1.81,1.81,0,0,0,2.32-2.77l0,0-4.84-4.08,0,0A1.83,1.83,0,0,0,506,805Z" transform="translate(0 -18.44)"/><path class="cls-63" d="M522.88,818.18l5.28,3.68a1.73,1.73,0,0,0,2-2.83l0,0-5.17-3.66,0,0a1.75,1.75,0,1,0-2,2.85Z" transform="translate(0 -18.44)"/><path class="cls-63" d="M540.79,829.88l5.57,3.22a1.64,1.64,0,0,0,1.65-2.83l0,0L542.52,827l0,0a1.67,1.67,0,1,0-1.69,2.87Z" transform="translate(0 -18.44)"/><path class="cls-63" d="M559.62,840l5.81,2.73a1.56,1.56,0,1,0,1.34-2.81l0,0L561,837.2l0,0a1.59,1.59,0,1,0-1.37,2.86Z" transform="translate(0 -18.44)"/><path class="cls-63" d="M579.23,848.55l6,2.23a1.47,1.47,0,0,0,1-2.76h0l-5.94-2.25h0a1.5,1.5,0,0,0-1.06,2.8Z" transform="translate(0 -18.44)"/><path class="cls-63" d="M599.53,855.35l6.2,1.68a1.39,1.39,0,0,0,.74-2.68h0l-6.1-1.71h0a1.42,1.42,0,1,0-.76,2.73Z" transform="translate(0 -18.44)"/><path class="cls-63" d="M620.32,860.29l6.32,1.11a1.31,1.31,0,0,0,.46-2.57h0l-6.23-1.14h0a1.33,1.33,0,1,0-.48,2.62Z" transform="translate(0 -18.44)"/><path class="cls-63" d="M641.48,863.29l6.4.51a1.22,1.22,0,0,0,.2-2.44h0l-6.31-.55h0a1.24,1.24,0,1,0-.21,2.48Z" transform="translate(0 -18.44)"/><path class="cls-63" d="M662.82,864.25l6.42-.12a1.14,1.14,0,0,0,0-2.28h0l-6.34.07h0a1.18,1.18,0,0,0-1.16,1.18A1.16,1.16,0,0,0,662.82,864.25Z" transform="translate(0 -18.44)"/><path class="cls-63" d="M684.16,863.09l5-.59a1.06,1.06,0,0,0-.24-2.11h0l-4.94.54h0a1.08,1.08,0,0,0-1,1.19A1.1,1.1,0,0,0,684.16,863.09Z" transform="translate(0 -18.44)"/><path class="cls-79" d="M336.49,864.1s69.34,88.78-9.77,179.07L297,1040.4s54.45-87.42,33.5-159.72a7,7,0,0,0-7.23-5.09l-30.36,2.21a16,16,0,0,1-11.2-3.48L263.3,859.54Z" transform="translate(0 -18.44)"/><path class="cls-21" d="M185,727.19c-27.61-31.86-33.81-72.89,17.29-104.07,45.66-27.87,105.55.68,151.24,14.57,54.7,16.63,111.12,26.75,167.84,14.14,51.79-11.52,104.46-55.65,160-40.09,51.75,14.51,62.06,84.38,21.8,119.12-43.63,37.64-118.78,48.68-173.07,57.82C438.86,804,345,798.87,256.08,772.52,229.9,764.76,202.9,747.91,185,727.19Z" transform="translate(0 -18.44)"/><path class="cls-22" d="M185,746.12c-27.61-31.86-33.81-72.89,17.29-104.07,45.66-27.87,105.55.68,151.24,14.57,54.7,16.63,111.12,26.75,167.84,14.14,51.79-11.52,104.46-55.65,160-40.09,51.75,14.51,62.06,84.38,21.8,119.12-43.63,37.64-118.78,48.68-173.07,57.82C438.86,823,345,817.8,256.08,791.45,229.9,783.69,202.9,766.84,185,746.12Z" transform="translate(0 -18.44)"/><path class="cls-80" d="M767,666.83c17.9,33.35-3,79.22-48.44,96.43a800.67,800.67,0,0,1-567.71,0c-45.48-17.21-66.33-63.08-48.44-96.43s60.73-45.64,97.13-32a663.32,663.32,0,0,0,470.34,0C706.22,621.19,749,633.34,767,666.83Z" transform="translate(0 -18.44)"/><path class="cls-21" d="M451.5,744.91a24.5,24.5,0,0,1-4.86-.49C433,741.59,424.69,728,412.11,707.5c-2-3.32-4.19-6.83-6.5-10.52-3.6-5.75-7.27-8.9-10.91-9.38-8.14-1.08-19.74,9.72-31,20.16C353.58,717.21,343.08,727,331.63,732c-8,3.47-16.29,6.15-22.79,2.34-6.66-3.9-7.47-11.9-8.41-21.16-.88-8.64-2-19.39-7.29-31.28-2-4.42-4.81-7-8.92-8-16.05-4-44.85,14.62-54.6,22.14a7.1,7.1,0,0,1-8.68-11.23c4.14-3.2,41.16-31.1,66.73-24.68,8.32,2.09,14.7,7.62,18.43,16,6.25,14,7.52,26.5,8.45,35.64.37,3.64.87,8.08,1.62,10.25h0c1,0,3.63-.34,9.81-3,9.21-4,18.81-12.93,28.09-21.57,14.25-13.26,27.71-25.78,42.49-23.84,8,1.06,15.12,6.41,21.08,15.92,2.34,3.73,4.52,7.29,6.57,10.64,10.27,16.75,17.69,28.85,25.31,30.43,4.47.92,10.66-1.45,19-7.28,6.38-4.47,14.19-11.13,22.47-18.18C515.68,684,543.7,660.11,566,664.14c8.35,1.51,15,6.64,19.8,15.23,3.5,6.29,7.27,9.75,11.52,10.56,9.7,1.85,23.66-9.59,34.87-18.78,7.41-6.07,14.41-11.8,20.84-14.65a7.1,7.1,0,1,1,5.75,13c-4.67,2.08-10.95,7.21-17.59,12.66C627,693.77,610.91,707,594.7,703.87c-8.52-1.62-15.68-7.54-21.28-17.59-3.53-6.35-7.35-7.7-9.92-8.16-15.7-2.84-43.24,20.61-63.36,37.74-8.53,7.27-16.59,14.13-23.5,19C467,741.64,458.85,744.91,451.5,744.91Z" transform="translate(0 -18.44)"/><path class="cls-22" d="M691.29,809.82a245.7,245.7,0,0,1-22,16.35h0c-44.08,27.14-105.06,33.74-151,41.48a609.18,609.18,0,0,1-274-16.6c-26.17-7.76-53.17-24.83-71.11-45.55a95.3,95.3,0,0,1-16.35-25.93c-10.72-26.31-4.47-55.07,33.62-78.31,45.67-27.87,105.56.66,151.25,14.55,54.71,16.61,111.12,26.73,167.84,14.11,51.77-11.52,104.47-55.22,160-39.65C721.25,704.78,731.54,775.08,691.29,809.82Z" transform="translate(0 -18.44)"/><path class="cls-21" d="M691.29,808.94a143.52,143.52,0,0,1-22,15.48c57.08-44.44,17.42-85.71-5.06-112.87s-68.62,30.71-170.37,49.64-217.69-30.76-254.37-46.14-58,24.85-58,24.85c-13.49,12.32-20.45,27.16-24.73,39.56-10.72-26.31-4.47-55,33.62-78.25,45.67-27.88,105.56.68,151.25,14.57,54.71,16.62,111.12,26.74,167.84,14.13,51.77-11.52,104.47-55.65,160-40.08C721.25,704.33,731.54,774.21,691.29,808.94Z" transform="translate(0 -18.44)"/><path class="cls-81" d="M408,863.29c-142.87,0-227.54-64.39-228.41-65.06a1.22,1.22,0,0,1,1.49-1.93c.9.7,91.77,69.74,244.12,64.24a1.18,1.18,0,0,1,1.25,1.17,1.21,1.21,0,0,1-1.17,1.26C419.43,863.18,413.65,863.29,408,863.29Z" transform="translate(0 -18.44)"/><path class="cls-82" d="M298.52,1298.75s-56.18,122.44-85.66,173.16c0,0-5.85,31.91,0,41.95l5,2.21-23.28-.69s-2.07-42.92-.46-45.32,4.85-2.24,4.85-2.24,10-79.1,38.9-96l28-96.52Z" transform="translate(0 -18.44)"/><path class="cls-83" d="M227.8,1522.09c0,.56-18.19.3-28.08.12a7.87,7.87,0,0,1-7.55-6.2l-7.47-39.27a7.06,7.06,0,0,1,5.36-8.2l4.17-1s6,8.16,4.08,15.85-3.54,27.59,1.19,29.91,18.35,2.72,18.35,2.72S227.48,1517,227.8,1522.09Z" transform="translate(0 -18.44)"/><path class="cls-84" d="M351.77,1522.8a2.06,2.06,0,0,1-1,3.84c-16.56-.17-53.67-.69-57-2.06-4.25-1.77,1.55-17.07,7.67-22.25l33.75,11Z" transform="translate(0 -18.44)"/><path class="cls-85" d="M362.24,1290.94s-36.3,175.63-46.57,209.89L340,1516.07s-12.17-2.07-21.2-2.72-17.33-11-17.33-11l2.91-4.64s9.1-174.67,6.89-194.51Z" transform="translate(0 -18.44)"/><path class="cls-86" d="M452.36,881.29s5,91.36-78.17,138l20,45.67s75.2-45.48,72.53-169.53a14.8,14.8,0,0,1,3.52-10l16-18.56a28.72,28.72,0,0,0,6.11-25.73l-2.11-8.43a4.36,4.36,0,0,0-6.43-2.71l-1.67,1a29.33,29.33,0,0,0-12.06,13.41l-8,12.68c-2.22,5-13.81,9.1-19.35,10.83A1.83,1.83,0,0,0,442,871Z" transform="translate(0 -18.44)"/><path class="cls-87" d="M377.09,1012.49c-13.92,3.85-61.06,16.26-90.49,15.75l18.07,102-1.44,16.63,58.92-.26s16.58-38.52,29.67-57.72c3.78-5.55,1-12.16-1.18-18.52l2.94-2a8,8,0,0,0,3.18-9.16l-14.35-43.9A4.37,4.37,0,0,0,377.09,1012.49Z" transform="translate(0 -18.44)"/><path class="cls-88" d="M366.87,1137.88,365.71,1148s16.65,49.86-8.33,166.32c0,0-54.09,15.33-98.54-21.34,0,0,12.54-109.92,16-115,17.06-25.5,28.43-31.05,28.43-31.05l.51-11S351.29,1144.43,366.87,1137.88Z" transform="translate(0 -18.44)"/><path class="cls-89" d="M343.8,1020.7c.21-.27-12.3-37.76-12.3-37.76l-17.91,1.63-7,42.53S334.67,1032.76,343.8,1020.7Z" transform="translate(0 -18.44)"/><path class="cls-90" d="M317.88,923.83c1.19.74,38.28,16.07,30.31,54.57a7.23,7.23,0,0,1-4.11,5.15,62.73,62.73,0,0,1-31.17,5.16c-19.43-2-32.16-35.88-31.62-45.74S306,916.46,317.88,923.83Z" transform="translate(0 -18.44)"/><path class="cls-91" d="M306.48,904.36c1.23.16,27,9.15,14.24,27.85s-17.6,29.71-11.54,37.92c5.51,7.49,17.73,3.22,16.66,18.79a8.75,8.75,0,0,0,3.72,7.89c11.52,7.79,39.6,31.78,11.78,66a8.71,8.71,0,0,0-1,9.75c8.15,14.61,25.27,57.44-36.71,81.2-61.25,23.47-83.36-16.56-89.54-32.57a8.53,8.53,0,0,0-8.45-5.4c-6.73.32-16.27-.8-15.83-9.8.27-5.46,3.68-10.36,7.7-14.28a8.53,8.53,0,0,0-1.64-13.44,16.69,16.69,0,0,1-8.25-10.38c-3.71-13.75,3.7-54.88,43.12-61.85,3.28-.58,6.73-3.66,7.21-7a.59.59,0,0,1,0-.14,8.53,8.53,0,0,0-3.17-8.39c-6.29-4.61-14.36-13.91-7.81-28.82,5.82-13.22,17-17.68,25.26-19.1a8.59,8.59,0,0,0,7-10.26C256.5,919.19,258.93,898.13,306.48,904.36Z" transform="translate(0 -18.44)"/><path class="cls-5" d="M750.12,183.23l-379-2.11a19.89,19.89,0,0,0-17.17,30.13l1.9,3.17a19.91,19.91,0,0,0,17.06,9.66H750a19.89,19.89,0,0,0,19.89-19.9v-1.06A19.89,19.89,0,0,0,750.12,183.23Z" transform="translate(0 -18.44)"/><path class="cls-5" d="M803.07,203.57v.61A19.89,19.89,0,0,0,823,224.08H907.1a19.9,19.9,0,0,0,.15-39.79l-84.14-.62A19.89,19.89,0,0,0,803.07,203.57Z" transform="translate(0 -18.44)"/><path class="cls-5" d="M659,254.65,371.1,252.53a19.9,19.9,0,0,0-17.17,30.14l1.9,3.17a19.9,19.9,0,0,0,17.06,9.65h286a19.89,19.89,0,0,0,19.89-19.89v-1.06A19.89,19.89,0,0,0,659,254.65Z" transform="translate(0 -18.44)"/><path class="cls-5" d="M711.89,275v.62a19.89,19.89,0,0,0,19.9,19.89h84.14a19.9,19.9,0,0,0,.14-39.79l-84.14-.61A19.9,19.9,0,0,0,711.89,275Z" transform="translate(0 -18.44)"/><path class="cls-5" d="M2108.73,421.52l-379-2.11a19.9,19.9,0,0,0-17.17,30.14l1.91,3.17a19.88,19.88,0,0,0,17,9.65h377.12a19.9,19.9,0,0,0,19.9-19.89v-1.06A19.9,19.9,0,0,0,2108.73,421.52Z" transform="translate(0 -18.44)"/><path class="cls-5" d="M2161.68,441.86v.62a19.9,19.9,0,0,0,19.9,19.89h84.13a19.9,19.9,0,0,0,.15-39.79l-84.14-.61A19.88,19.88,0,0,0,2161.68,441.86Z" transform="translate(0 -18.44)"/><path class="cls-5" d="M2017.56,492.94l-287.85-2.11A19.9,19.9,0,0,0,1712.54,521l1.91,3.17a19.89,19.89,0,0,0,17,9.66h286a19.9,19.9,0,0,0,19.9-19.9v-1.06A19.89,19.89,0,0,0,2017.56,492.94Z" transform="translate(0 -18.44)"/><path class="cls-5" d="M2070.51,513.28v.61a19.89,19.89,0,0,0,19.89,19.9h84.14a19.9,19.9,0,0,0,.15-39.79l-84.14-.62A19.89,19.89,0,0,0,2070.51,513.28Z" transform="translate(0 -18.44)"/></g></g></svg>